<svg version="1.1" viewBox="0.0 0.0 396.9448818897638 159.20209973753282" fill="none" stroke="none" stroke-linecap="square" stroke-miterlimit="10" xmlns:xlink="http://www.w3.org/1999/xlink" xmlns="http://www.w3.org/2000/svg"><clipPath id="p.0"><path d="m0 0l396.9449 0l0 159.2021l-396.9449 0l0 -159.2021z" clip-rule="nonzero"/></clipPath><g clip-path="url(#p.0)"><path fill="#000000" fill-opacity="0.0" d="m0 0l396.9449 0l0 159.2021l-396.9449 0z" fill-rule="evenodd"/><path fill="#000000" fill-opacity="0.0" d="m-14.959298 -33.28609l543.8425 0l0 246.86613l-543.8425 0z" fill-rule="evenodd"/><path fill="#247ba0" d="m75.24383 57.71391q1.1875 0 1.921875 0.8125q0.734375 0.796875 0.734375 1.859375l0 33.468754q0 1.59375 -1.203125 2.390625q-6.125 4.140625 -13.390625 6.46875q-7.265625 2.328125 -14.734375 2.328125q-13.734375 0 -24.609377 -6.1875q-10.859374 -6.203125 -17.0625 -17.140625q-6.1875 -10.9375 -6.1875 -24.671879q0 -13.71875 6.1875 -24.65625q6.203125 -10.937498 17.0625 -17.124998q10.875002 -6.203125 24.609377 -6.203125q7.46875 0 14.203125 1.796875q6.734375 1.796875 12.0625 5.390625q1.203125 0.8125 1.203125 2.265625q0 1.203125 -0.875 1.9375q-0.859375 0.734375 -1.65625 0.734375q-0.671875 0 -1.734375 -0.53125q-11.203125 -6.265625 -23.203125 -6.265625q-12.265625 0 -21.875002 5.46875q-9.59375 5.46875 -14.999999 15.203123q-5.390625 9.71875 -5.390625 21.984375q0 12.265629 5.390625 22.000004q5.406249 9.734375 14.999999 15.203125q9.609377 5.46875 21.875002 5.46875q6.140625 0 12.46875 -1.921875q6.328125 -1.9375 11.53125 -5.140625l0 -29.609379l-24.0 0q-1.0625 0 -1.875 -0.796875q-0.796875 -0.796875 -0.796875 -1.859375q0 -1.203125 0.796875 -1.9375q0.8125 -0.734375 1.875 -0.734375l26.671875 0zm92.12351 -47.328125q1.203125 0 1.859375 0.734375q0.671875 0.734375 0.671875 1.796875l0 87.859375q0 1.46875 -0.796875 2.203125q-0.796875 0.734375 -2.0 0.734375q-1.328125 0 -2.140625 -1.0625l-59.984367 -82.0l0 80.796875q0 0.9375 -0.734375 1.609375q-0.734375 0.65625 -1.8125 0.65625q-1.1875 0 -1.859375 -0.65625q-0.671875 -0.671875 -0.671875 -1.609375l0 -88.390625q0 -1.34375 0.734375 -2.0q0.734375 -0.671875 1.671875 -0.671875q1.203125 0 2.0 0.9375l60.531242 82.53125l0 -80.9375q0 -1.0625 0.734375 -1.796875q0.734375 -0.734375 1.796875 -0.734375zm197.06363 94.65625q-9.875 0 -17.203125 -3.390625q-7.328125 -3.40625 -14.53125 -10.609375q-0.796875 -0.796875 -0.796875 -2.0q0 -1.0625 0.921875 -2.0625q0.9375 -1.0 2.0 -1.0q1.203125 0 2.265625 1.203125q5.203125 6.125 12.328125 9.328125q7.140625 3.203125 15.015625 3.203125q10.265625 0 16.921875 -4.921875q6.671875 -4.9375 6.671875 -13.078125q-0.125 -6.40625 -3.46875 -10.53125q-3.328125 -4.140625 -8.203125 -6.59375q-4.859375 -2.4687538 -13.265625 -5.546879q-9.1875 -3.453125 -14.328125 -6.125q-5.125 -2.671875 -8.796875 -7.59375q-3.671875 -4.9375 -3.671875 -12.9375q0 -6.531248 3.59375 -11.859373q3.609375 -5.34375 10.265625 -8.40625q6.671875 -3.0625 15.484375 -3.0625q7.859375 0 14.921875 2.859375q7.0625 2.859375 11.203125 8.0625q1.328125 1.875 1.328125 2.796875q0 1.078125 -1.0 1.953125q-1.0 0.859375 -2.1875 0.859375q-1.078125 0 -1.734375 -0.8125q-3.734375 -4.796875 -9.609375 -7.59375q-5.859375 -2.796875 -12.921875 -2.796875q-10.140625 0 -16.875 4.796875q-6.734375 4.796875 -6.734375 13.062498q0 5.734375 3.265625 9.734375q3.265625 4.0 8.203125 6.46875q4.9375 2.46875 12.265625 5.140625q9.328125 3.328125 14.796875 6.125q5.46875 2.796875 9.328125 8.140629q3.875 5.328125 3.875 14.125q0 6.140625 -3.609375 11.46875q-3.59375 5.328125 -10.328125 8.46875q-6.734375 3.125 -15.390625 3.125z" fill-rule="nonzero"/><path fill="#000000" fill-opacity="0.0" d="m-8.036175 115.88714l417.13385 0l0 43.71653l-417.13385 0z" fill-rule="evenodd"/><path fill="#247ba0" d="m18.713825 142.68776q0.375 0 0.625 0.25q0.25 0.25 0.25 0.640625l0 7.0625q0 0.5 -0.4375 0.796875q-1.328125 0.90625 -2.9375 1.40625q-1.609375 0.5 -3.28125 0.5q-3.0 0 -5.40625 -1.375q-2.390625 -1.390625 -3.7812498 -3.78125q-1.375 -2.40625 -1.375 -5.40625q0 -2.984375 1.375 -5.390625q1.3906248 -2.40625 3.7812498 -3.78125q2.40625 -1.390625 5.40625 -1.390625q1.546875 0 3.0 0.390625q1.453125 0.375 2.59375 1.078125q0.421875 0.265625 0.421875 0.734375q0 0.390625 -0.25 0.65625q-0.25 0.25 -0.578125 0.25q-0.296875 0 -0.53125 -0.140625q-2.203125 -1.203125 -4.65625 -1.203125q-2.5 0 -4.484375 1.140625q-1.96875 1.140625 -3.09375 3.15625q-1.109375 2.015625 -1.109375 4.5q0 2.5 1.109375 4.515625q1.125 2.0 3.09375 3.140625q1.984375 1.140625 4.484375 1.140625q1.265625 0 2.53125 -0.34375q1.28125 -0.359375 2.28125 -0.96875l0 -5.8125l-4.640625 0q-0.375 0 -0.640625 -0.25q-0.265625 -0.25 -0.265625 -0.625q0 -0.390625 0.265625 -0.640625q0.265625 -0.25 0.640625 -0.25l5.609375 0zm17.617416 2.0q0 0.359375 -0.265625 0.609375q-0.265625 0.234375 -0.609375 0.234375l-11.09375 0q0 1.765625 0.71875 3.15625q0.71875 1.390625 2.046875 2.203125q1.34375 0.8125 3.15625 0.8125q1.421875 0 2.53125 -0.578125q1.109375 -0.59375 1.78125 -1.515625q0.328125 -0.265625 0.625 -0.265625q0.296875 0 0.53125 0.25q0.234375 0.234375 0.234375 0.515625q0 0.328125 -0.296875 0.625q-0.9375 1.140625 -2.359375 1.875q-1.421875 0.734375 -3.015625 0.734375q-2.25 0 -3.984375 -0.96875q-1.734375 -0.96875 -2.703125 -2.703125q-0.96875 -1.75 -0.96875 -4.046875q0 -2.40625 0.953125 -4.203125q0.953125 -1.8125 2.53125 -2.765625q1.59375 -0.953125 3.390625 -0.953125q1.75 0 3.28125 0.828125q1.546875 0.8125 2.515625 2.40625q0.96875 1.578125 1.0 3.75zm-6.796875 -5.28125q-1.703125 0 -3.15625 1.171875q-1.453125 1.171875 -1.859375 3.375l10.0 0l0 -0.234375q-0.15625 -1.3125 -0.890625 -2.296875q-0.71875 -0.984375 -1.828125 -1.5q-1.09375 -0.515625 -2.265625 -0.515625zm17.509552 -1.703125q2.71875 0 3.984375 1.609375q1.28125 1.59375 1.28125 4.234375l0 8.625q0 0.375 -0.265625 0.625q-0.25 0.25 -0.609375 0.25q-0.375 0 -0.625 -0.25q-0.25 -0.25 -0.25 -0.625l0 -8.546875q0 -1.90625 -0.953125 -3.09375q-0.953125 -1.1875 -2.953125 -1.1875q-1.25 0 -2.390625 0.59375q-1.125 0.59375 -1.828125 1.578125q-0.703125 0.96875 -0.703125 2.109375l0 8.546875q0 0.375 -0.25 0.625q-0.25 0.25 -0.625 0.25q-0.390625 0 -0.640625 -0.25q-0.25 -0.25 -0.25 -0.625l0 -13.140625q0 -0.390625 0.25 -0.640625q0.25 -0.25 0.640625 -0.25q0.375 0 0.625 0.25q0.25 0.25 0.25 0.640625l0 1.609375q0.796875 -1.265625 2.265625 -2.09375q1.484375 -0.84375 3.046875 -0.84375zm22.545399 6.984375q0 0.359375 -0.265625 0.609375q-0.265625 0.234375 -0.609375 0.234375l-11.093754 0q0 1.765625 0.71875 3.15625q0.71875 1.390625 2.046875 2.203125q1.34375 0.8125 3.15625 0.8125q1.4218788 0 2.5312538 -0.578125q1.109375 -0.59375 1.78125 -1.515625q0.328125 -0.265625 0.625 -0.265625q0.296875 0 0.53125 0.25q0.234375 0.234375 0.234375 0.515625q0 0.328125 -0.296875 0.625q-0.9375 1.140625 -2.359375 1.875q-1.421875 0.734375 -3.0156288 0.734375q-2.25 0 -3.984375 -0.96875q-1.734375 -0.96875 -2.703125 -2.703125q-0.96875 -1.75 -0.96875 -4.046875q0 -2.40625 0.953125 -4.203125q0.953125 -1.8125 2.53125 -2.765625q1.59375 -0.953125 3.390625 -0.953125q1.7500038 0 3.2812538 0.828125q1.546875 0.8125 2.515625 2.40625q0.96875 1.578125 1.0 3.75zm-6.796879 -5.28125q-1.703125 0 -3.15625 1.171875q-1.453125 1.171875 -1.859375 3.375l10.000004 0l0 -0.234375q-0.15625 -1.3125 -0.890625 -2.296875q-0.71875 -0.984375 -1.828125 -1.5q-1.0937538 -0.515625 -2.2656288 -0.515625zm17.447056 -1.703125q0.578125 0 1.046875 0.234375q0.46875 0.234375 0.46875 0.703125q0 0.421875 -0.234375 0.671875q-0.234375 0.25 -0.546875 0.25q-0.15625 0 -0.578125 -0.140625q-0.421875 -0.15625 -0.796875 -0.15625q-1.09375 0 -2.171875 0.84375q-1.0625 0.828125 -1.75 2.15625q-0.6875 1.3125 -0.6875 2.65625l0 7.25q0 0.375 -0.25 0.625q-0.25 0.25 -0.625 0.25q-0.390625 0 -0.640625 -0.25q-0.25 -0.25 -0.25 -0.625l0 -13.140625q0 -0.390625 0.25 -0.640625q0.25 -0.25 0.640625 -0.25q0.375 0 0.625 0.25q0.25 0.25 0.25 0.640625l0 2.578125q0.671875 -1.671875 2.03125 -2.765625q1.375 -1.109375 3.21875 -1.140625zm5.978821 14.46875q0 0.375 -0.25 0.625q-0.25 0.25 -0.625 0.25q-0.390625 0 -0.640625 -0.25q-0.234375 -0.25 -0.234375 -0.625l0 -13.5q0 -0.375 0.234375 -0.625q0.25 -0.25 0.640625 -0.25q0.375 0 0.625 0.25q0.25 0.25 0.25 0.625l0 13.5zm-0.6875 -16.375q-0.578125 0 -0.90625 -0.265625q-0.328125 -0.28125 -0.328125 -0.8125l0 -0.296875q0 -0.53125 0.34375 -0.796875q0.34375 -0.28125 0.921875 -0.28125q1.171875 0 1.171875 1.078125l0 0.296875q0 0.53125 -0.3125 0.8125q-0.296875 0.265625 -0.890625 0.265625zm11.744965 1.90625q1.375 0 2.5625 0.3125q1.1875 0.3125 1.90625 0.84375q0.71875 0.515625 0.71875 1.140625q0 0.3125 -0.21875 0.578125q-0.21875 0.265625 -0.53125 0.265625q-0.296875 0 -0.5 -0.109375q-0.1875 -0.125 -0.421875 -0.359375q-0.375 -0.375 -0.734375 -0.5625q-0.4375 -0.203125 -1.15625 -0.328125q-0.71875 -0.140625 -1.53125 -0.140625q-1.625 0 -2.953125 0.828125q-1.328125 0.828125 -2.09375 2.234375q-0.765625 1.40625 -0.765625 3.109375q0 1.75 0.734375 3.15625q0.734375 1.40625 2.03125 2.21875q1.3125 0.8125 2.984375 0.8125q1.0625 0 1.6875 -0.171875q0.625 -0.1875 1.25 -0.515625q0.203125 -0.109375 0.703125 -0.515625q0.234375 -0.203125 0.40625 -0.3125q0.171875 -0.109375 0.375 -0.109375q0.359375 0 0.5625 0.234375q0.203125 0.21875 0.203125 0.5625q0 0.5 -0.703125 1.078125q-0.703125 0.5625 -1.9375 0.984375q-1.234375 0.40625 -2.71875 0.40625q-2.140625 0 -3.8125 -1.015625q-1.671875 -1.015625 -2.609375 -2.796875q-0.921875 -1.796875 -0.921875 -4.015625q0 -2.140625 0.9375 -3.921875q0.953125 -1.78125 2.640625 -2.828125q1.703125 -1.0625 3.90625 -1.0625zm32.049965 -5.1875q0.390625 0 0.609375 0.234375q0.21875 0.234375 0.21875 0.59375l0 18.765625q0 0.4375 -0.265625 0.6875q-0.265625 0.25 -0.640625 0.25q-0.203125 0 -0.40625 -0.078125q-0.1875 -0.09375 -0.296875 -0.21875l-12.578117 -16.953125l0 16.453125q0 0.328125 -0.25 0.5625q-0.25 0.234375 -0.578125 0.234375q-0.359375 0 -0.59375 -0.234375q-0.234375 -0.234375 -0.234375 -0.5625l0 -18.859375q0 -0.40625 0.25 -0.640625q0.25 -0.234375 0.609375 -0.234375q0.46875 0 0.703125 0.328125l12.640617 17.03125l0 -16.53125q0 -0.359375 0.234375 -0.59375q0.234375 -0.234375 0.578125 -0.234375zm18.56961 12.171875q0 0.359375 -0.265625 0.609375q-0.265625 0.234375 -0.609375 0.234375l-11.09375 0q0 1.765625 0.71875 3.15625q0.71875 1.390625 2.046875 2.203125q1.34375 0.8125 3.15625 0.8125q1.421875 0 2.53125 -0.578125q1.109375 -0.59375 1.78125 -1.515625q0.328125 -0.265625 0.625 -0.265625q0.296875 0 0.53125 0.25q0.234375 0.234375 0.234375 0.515625q0 0.328125 -0.296875 0.625q-0.9375 1.140625 -2.359375 1.875q-1.421875 0.734375 -3.015625 0.734375q-2.25 0 -3.984375 -0.96875q-1.734375 -0.96875 -2.703125 -2.703125q-0.96875 -1.75 -0.96875 -4.046875q0 -2.40625 0.953125 -4.203125q0.953125 -1.8125 2.53125 -2.765625q1.59375 -0.953125 3.390625 -0.953125q1.75 0 3.28125 0.828125q1.546875 0.8125 2.515625 2.40625q0.96875 1.578125 1.0 3.75zm-6.796875 -5.28125q-1.703125 0 -3.15625 1.171875q-1.453125 1.171875 -1.859375 3.375l10.0 0l0 -0.234375q-0.15625 -1.3125 -0.890625 -2.296875q-0.71875 -0.984375 -1.828125 -1.5q-1.09375 -0.515625 -2.265625 -0.515625zm21.634552 -1.265625q0.390625 0 0.640625 0.25q0.25 0.25 0.25 0.640625l0 8.265625q0 2.875 -1.625 4.421875q-1.609375 1.53125 -4.453125 1.53125q-2.8125 0 -4.421875 -1.53125q-1.59375 -1.546875 -1.59375 -4.421875l0 -8.265625q0 -0.390625 0.25 -0.640625q0.25 -0.25 0.640625 -0.25q0.375 0 0.625 0.25q0.25 0.25 0.25 0.640625l0 8.265625q0 2.109375 1.109375 3.21875q1.125 1.09375 3.140625 1.09375q2.046875 0 3.171875 -1.09375q1.140625 -1.109375 1.140625 -3.21875l0 -8.265625q0 -0.390625 0.25 -0.640625q0.25 -0.25 0.625 -0.25zm12.500198 -0.4375q0.578125 0 1.046875 0.234375q0.46875 0.234375 0.46875 0.703125q0 0.421875 -0.234375 0.671875q-0.234375 0.25 -0.546875 0.25q-0.15625 0 -0.578125 -0.140625q-0.421875 -0.15625 -0.796875 -0.15625q-1.09375 0 -2.171875 0.84375q-1.0625 0.828125 -1.75 2.15625q-0.6875 1.3125 -0.6875 2.65625l0 7.25q0 0.375 -0.25 0.625q-0.25 0.25 -0.625 0.25q-0.390625 0 -0.640625 -0.25q-0.25 -0.25 -0.25 -0.625l0 -13.140625q0 -0.390625 0.25 -0.640625q0.25 -0.25 0.640625 -0.25q0.375 0 0.625 0.25q0.25 0.25 0.25 0.640625l0 2.578125q0.671875 -1.671875 2.03125 -2.765625q1.375 -1.109375 3.21875 -1.140625zm16.095566 0.359375q0.390625 0 0.640625 0.265625q0.25 0.265625 0.25 0.640625l0 13.203125q0 0.375 -0.25 0.625q-0.25 0.25 -0.640625 0.25q-0.375 0 -0.625 -0.25q-0.25 -0.25 -0.25 -0.625l0 -1.96875q-0.734375 1.3125 -2.203125 2.234375q-1.46875 0.90625 -3.1875 0.90625q-1.96875 0 -3.546875 -1.03125q-1.5625 -1.03125 -2.46875 -2.8125q-0.890625 -1.796875 -0.890625 -4.015625q0 -2.234375 0.90625 -4.0q0.921875 -1.78125 2.484375 -2.78125q1.578125 -1.0 3.484375 -1.0q1.75 0 3.21875 0.859375q1.46875 0.84375 2.203125 2.21875l0 -1.8125q0 -0.375 0.25 -0.640625q0.25 -0.265625 0.625 -0.265625zm-6.09375 13.640625q1.515625 0 2.734375 -0.8125q1.21875 -0.8125 1.90625 -2.234375q0.6875 -1.421875 0.6875 -3.171875q0 -1.703125 -0.6875 -3.109375q-0.6875 -1.40625 -1.90625 -2.21875q-1.21875 -0.8125 -2.734375 -0.8125q-1.53125 0 -2.75 0.796875q-1.21875 0.796875 -1.90625 2.1875q-0.6875 1.390625 -0.6875 3.15625q0 1.75 0.671875 3.171875q0.6875 1.421875 1.890625 2.234375q1.21875 0.8125 2.78125 0.8125zm13.514893 0.46875q0 0.375 -0.25 0.625q-0.25 0.25 -0.625 0.25q-0.390625 0 -0.640625 -0.25q-0.234375 -0.25 -0.234375 -0.625l0 -19.953125q0 -0.375 0.234375 -0.625q0.25 -0.25 0.640625 -0.25q0.375 0 0.625 0.25q0.25 0.25 0.25 0.625l0 19.953125zm24.908295 -0.859375q0.375 0 0.625 0.265625q0.25 0.265625 0.25 0.625q0 0.375 -0.25 0.609375q-0.25 0.234375 -0.625 0.234375l-10.765625 0q-0.390625 0 -0.640625 -0.25q-0.25 -0.25 -0.25 -0.625l0 -18.78125q0 -0.375 0.25 -0.625q0.25 -0.25 0.640625 -0.25l10.765625 0q0.375 0 0.625 0.25q0.25 0.25 0.25 0.625q0 0.390625 -0.25 0.625q-0.25 0.234375 -0.625 0.234375l-9.796875 0l0 7.359375l8.46875 0q0.390625 0 0.625 0.25q0.25 0.25 0.25 0.625q0 0.390625 -0.25 0.625q-0.234375 0.234375 -0.625 0.234375l-8.46875 0l0 7.96875l9.796875 0zm6.502121 0.859375q0 0.375 -0.25 0.625q-0.25 0.25 -0.625 0.25q-0.390625 0 -0.640625 -0.25q-0.234375 -0.25 -0.234375 -0.625l0 -19.953125q0 -0.375 0.234375 -0.625q0.25 -0.25 0.640625 -0.25q0.375 0 0.625 0.25q0.25 0.25 0.25 0.625l0 19.953125zm16.979843 -14.109375q0.390625 0 0.640625 0.265625q0.25001526 0.265625 0.25001526 0.640625l0 13.203125q0 0.375 -0.25001526 0.625q-0.25 0.25 -0.640625 0.25q-0.375 0 -0.625 -0.25q-0.25 -0.25 -0.25 -0.625l0 -1.96875q-0.734375 1.3125 -2.203125 2.234375q-1.46875 0.90625 -3.1875 0.90625q-1.96875 0 -3.546875 -1.03125q-1.5625 -1.03125 -2.46875 -2.8125q-0.890625 -1.796875 -0.890625 -4.015625q0 -2.234375 0.90625 -4.0q0.921875 -1.78125 2.484375 -2.78125q1.578125 -1.0 3.484375 -1.0q1.75 0 3.21875 0.859375q1.46875 0.84375 2.203125 2.21875l0 -1.8125q0 -0.375 0.25 -0.640625q0.25 -0.265625 0.625 -0.265625zm-6.09375 13.640625q1.515625 0 2.734375 -0.8125q1.21875 -0.8125 1.90625 -2.234375q0.6875 -1.421875 0.6875 -3.171875q0 -1.703125 -0.6875 -3.109375q-0.6875 -1.40625 -1.90625 -2.21875q-1.21875 -0.8125 -2.734375 -0.8125q-1.53125 0 -2.75 0.796875q-1.21875 0.796875 -1.90625 2.1875q-0.6875 1.390625 -0.6875 3.15625q0 1.75 0.671875 3.171875q0.6875 1.421875 1.890625 2.234375q1.21875 0.8125 2.78125 0.8125zm10.733658 -1.03125q-0.234375 -0.375 -0.234375 -0.640625q0 -0.390625 0.375 -0.59375q0.171875 -0.171875 0.46875 -0.171875q0.359375 0 0.65625 0.296875q1.71875 2.28125 4.5937653 2.28125q1.40625 0 2.453125 -0.65625q1.046875 -0.65625 1.046875 -1.921875q0 -1.234375 -0.96875 -1.84375q-0.96875 -0.625 -2.703125 -1.0625q-2.4375153 -0.609375 -3.8125153 -1.59375q-1.375 -0.984375 -1.375 -2.890625q0 -1.203125 0.671875 -2.15625q0.671875 -0.953125 1.828125 -1.484375q1.15625 -0.53125 2.6250153 -0.53125q1.265625 0 2.53125 0.484375q1.28125 0.484375 2.1875 1.546875q0.265625 0.203125 0.265625 0.578125q0 0.359375 -0.28125 0.625q-0.21875 0.171875 -0.53125 0.171875q-0.296875 0 -0.53125 -0.234375q-0.703125 -0.796875 -1.671875 -1.203125q-0.96875 -0.40625 -2.078125 -0.40625q-1.3750153 0 -2.3593903 0.640625q-0.984375 0.640625 -0.984375 1.9375q0.0625 1.171875 1.0625 1.796875q1.0156403 0.609375 2.9843903 1.109375q1.515625 0.375 2.515625 0.84375q1.0 0.46875 1.625 1.328125q0.640625 0.84375 0.640625 2.25q0 1.90625 -1.53125 3.046875q-1.515625 1.125 -3.78125 1.125q-3.5781403 0 -5.6875153 -2.671875zm17.536148 -10.90625l0 9.828125q0 1.109375 0.40625 1.515625q0.421875 0.390625 1.09375 0.390625q0.171875 0 0.4375 -0.078125q0.265625 -0.078125 0.40625 -0.078125q0.265625 0 0.453125 0.21875q0.1875 0.21875 0.1875 0.515625q0 0.40625 -0.46875 0.6875q-0.46875 0.28125 -1.109375 0.28125q-0.796875 0 -1.40625 -0.140625q-0.609375 -0.15625 -1.1875 -0.890625q-0.578125 -0.734375 -0.578125 -2.34375l0 -9.90625l-2.140625 0q-0.34375 0 -0.59375 -0.234375q-0.25 -0.234375 -0.25 -0.59375q0 -0.34375 0.25 -0.578125q0.25 -0.234375 0.59375 -0.234375l2.140625 0l0 -3.265625q0 -0.375 0.25 -0.625q0.25 -0.25 0.640625 -0.25q0.375 0 0.625 0.25q0.25 0.25 0.25 0.625l0 3.265625l2.9375 0q0.3125 0 0.5625 0.265625q0.25 0.25 0.25 0.578125q0 0.359375 -0.234375 0.578125q-0.234375 0.21875 -0.578125 0.21875l-2.9375 0zm8.707855 12.40625q0 0.375 -0.25 0.625q-0.25 0.25 -0.625 0.25q-0.390625 0 -0.640625 -0.25q-0.234375 -0.25 -0.234375 -0.625l0 -13.5q0 -0.375 0.234375 -0.625q0.25 -0.25 0.640625 -0.25q0.375 0 0.625 0.25q0.25 0.25 0.25 0.625l0 13.5zm-0.6875 -16.375q-0.578125 0 -0.90625 -0.265625q-0.328125 -0.28125 -0.328125 -0.8125l0 -0.296875q0 -0.53125 0.34375 -0.796875q0.34375 -0.28125 0.921875 -0.28125q1.171875 0 1.171875 1.078125l0 0.296875q0 0.53125 -0.3125 0.8125q-0.296875 0.265625 -0.890625 0.265625zm11.744965 1.90625q1.375 0 2.5625 0.3125q1.1875 0.3125 1.90625 0.84375q0.71875 0.515625 0.71875 1.140625q0 0.3125 -0.21875 0.578125q-0.21875 0.265625 -0.53125 0.265625q-0.296875 0 -0.5 -0.109375q-0.1875 -0.125 -0.421875 -0.359375q-0.375 -0.375 -0.734375 -0.5625q-0.4375 -0.203125 -1.15625 -0.328125q-0.71875 -0.140625 -1.53125 -0.140625q-1.625 0 -2.953125 0.828125q-1.328125 0.828125 -2.09375 2.234375q-0.765625 1.40625 -0.765625 3.109375q0 1.75 0.734375 3.15625q0.734375 1.40625 2.03125 2.21875q1.3125 0.8125 2.984375 0.8125q1.0625 0 1.6875 -0.171875q0.625 -0.1875 1.25 -0.515625q0.203125 -0.109375 0.703125 -0.515625q0.234375 -0.203125 0.40625 -0.3125q0.171875 -0.109375 0.375 -0.109375q0.359375 0 0.5625 0.234375q0.203125 0.21875 0.203125 0.5625q0 0.5 -0.703125 1.078125q-0.703125 0.5625 -1.9375 0.984375q-1.234375 0.40625 -2.71875 0.40625q-2.140625 0 -3.8125 -1.015625q-1.671875 -1.015625 -2.609375 -2.796875q-0.921875 -1.796875 -0.921875 -4.015625q0 -2.140625 0.9375 -3.921875q0.953125 -1.78125 2.640625 -2.828125q1.703125 -1.0625 3.90625 -1.0625zm22.581238 15.640625q-2.109375 0 -3.734375 -0.703125q-1.625 -0.703125 -3.15625 -2.203125q-0.34375 -0.296875 -0.34375 -0.703125q0 -0.359375 0.265625 -0.640625q0.28125 -0.296875 0.640625 -0.296875q0.34375 0 0.640625 0.296875q2.28125 2.515625 5.71875 2.515625q2.109375 0 3.5 -1.0q1.40625 -1.0 1.40625 -2.609375q0 -1.265625 -0.703125 -2.09375q-0.6875 -0.84375 -1.796875 -1.359375q-1.109375 -0.53125 -2.84375 -1.09375q-1.875 -0.546875 -3.15625 -1.21875q-1.28125 -0.6875 -2.078125 -1.8125q-0.78125 -1.125 -0.78125 -2.859375q0 -1.5625 0.828125 -2.75q0.84375 -1.203125 2.34375 -1.890625q1.515625 -0.703125 3.484375 -0.703125q1.796875 0 3.359375 0.609375q1.578125 0.59375 2.515625 1.71875q0.4375 0.5 0.4375 0.84375q0 0.328125 -0.296875 0.609375q-0.296875 0.265625 -0.640625 0.265625q-0.296875 0 -0.5 -0.203125q-0.796875 -0.9375 -2.125 -1.515625q-1.3125 -0.59375 -2.75 -0.59375q-2.140625 0 -3.484375 0.953125q-1.34375 0.953125 -1.34375 2.59375q0 1.703125 1.28125 2.609375q1.296875 0.90625 3.703125 1.671875q2.078125 0.625 3.390625 1.265625q1.328125 0.640625 2.15625 1.828125q0.84375 1.1875 0.84375 3.125q0 1.5 -0.875 2.71875q-0.859375 1.21875 -2.40625 1.921875q-1.53125 0.703125 -3.5 0.703125zm23.169891 -8.65625q0 0.359375 -0.265625 0.609375q-0.265625 0.234375 -0.609375 0.234375l-11.09375 0q0 1.765625 0.71875 3.15625q0.71875 1.390625 2.046875 2.203125q1.34375 0.8125 3.15625 0.8125q1.421875 0 2.53125 -0.578125q1.109375 -0.59375 1.78125 -1.515625q0.328125 -0.265625 0.625 -0.265625q0.296875 0 0.53125 0.25q0.234375 0.234375 0.234375 0.515625q0 0.328125 -0.296875 0.625q-0.9375 1.140625 -2.359375 1.875q-1.421875 0.734375 -3.015625 0.734375q-2.25 0 -3.984375 -0.96875q-1.734375 -0.96875 -2.703125 -2.703125q-0.96875 -1.75 -0.96875 -4.046875q0 -2.40625 0.953125 -4.203125q0.953125 -1.8125 2.53125 -2.765625q1.59375 -0.953125 3.390625 -0.953125q1.75 0 3.28125 0.828125q1.546875 0.8125 2.515625 2.40625q0.96875 1.578125 1.0 3.75zm-6.796875 -5.28125q-1.703125 0 -3.15625 1.171875q-1.453125 1.171875 -1.859375 3.375l10.0 0l0 -0.234375q-0.15625 -1.3125 -0.890625 -2.296875q-0.71875 -0.984375 -1.828125 -1.5q-1.09375 -0.515625 -2.265625 -0.515625zm22.720642 -1.34375q0.390625 0 0.640625 0.265625q0.25 0.265625 0.25 0.640625l0 13.203125q0 0.375 -0.25 0.625q-0.25 0.25 -0.640625 0.25q-0.375 0 -0.625 -0.25q-0.25 -0.25 -0.25 -0.625l0 -1.96875q-0.734375 1.3125 -2.203125 2.234375q-1.46875 0.90625 -3.1875 0.90625q-1.96875 0 -3.546875 -1.03125q-1.5625 -1.03125 -2.46875 -2.8125q-0.890625 -1.796875 -0.890625 -4.015625q0 -2.234375 0.90625 -4.0q0.921875 -1.78125 2.484375 -2.78125q1.578125 -1.0 3.484375 -1.0q1.75 0 3.21875 0.859375q1.46875 0.84375 2.203125 2.21875l0 -1.8125q0 -0.375 0.25 -0.640625q0.25 -0.265625 0.625 -0.265625zm-6.09375 13.640625q1.515625 0 2.734375 -0.8125q1.21875 -0.8125 1.90625 -2.234375q0.6875 -1.421875 0.6875 -3.171875q0 -1.703125 -0.6875 -3.109375q-0.6875 -1.40625 -1.90625 -2.21875q-1.21875 -0.8125 -2.734375 -0.8125q-1.53125 0 -2.75 0.796875q-1.21875 0.796875 -1.90625 2.1875q-0.6875 1.390625 -0.6875 3.15625q0 1.75 0.671875 3.171875q0.6875 1.421875 1.890625 2.234375q1.21875 0.8125 2.78125 0.8125zm18.593018 -14.0q0.578125 0 1.046875 0.234375q0.46875 0.234375 0.46875 0.703125q0 0.421875 -0.234375 0.671875q-0.234375 0.25 -0.546875 0.25q-0.15625 0 -0.578125 -0.140625q-0.421875 -0.15625 -0.796875 -0.15625q-1.09375 0 -2.171875 0.84375q-1.0625 0.828125 -1.75 2.15625q-0.6875 1.3125 -0.6875 2.65625l0 7.25q0 0.375 -0.25 0.625q-0.25 0.25 -0.625 0.25q-0.390625 0 -0.640625 -0.25q-0.25 -0.25 -0.25 -0.625l0 -13.140625q0 -0.390625 0.25 -0.640625q0.25 -0.25 0.640625 -0.25q0.375 0 0.625 0.25q0.25 0.25 0.25 0.640625l0 2.578125q0.671875 -1.671875 2.03125 -2.765625q1.375 -1.109375 3.21875 -1.140625zm10.114716 0q1.375 0 2.5625 0.3125q1.1875 0.3125 1.90625 0.84375q0.71875 0.515625 0.71875 1.140625q0 0.3125 -0.21875 0.578125q-0.21875 0.265625 -0.53125 0.265625q-0.296875 0 -0.5 -0.109375q-0.1875 -0.125 -0.421875 -0.359375q-0.375 -0.375 -0.734375 -0.5625q-0.4375 -0.203125 -1.15625 -0.328125q-0.71875 -0.140625 -1.53125 -0.140625q-1.625 0 -2.953125 0.828125q-1.328125 0.828125 -2.09375 2.234375q-0.765625 1.40625 -0.765625 3.109375q0 1.75 0.734375 3.15625q0.734375 1.40625 2.03125 2.21875q1.3125 0.8125 2.984375 0.8125q1.0625 0 1.6875 -0.171875q0.625 -0.1875 1.25 -0.515625q0.203125 -0.109375 0.703125 -0.515625q0.234375 -0.203125 0.40625 -0.3125q0.171875 -0.109375 0.375 -0.109375q0.359375 0 0.5625 0.234375q0.203125 0.21875 0.203125 0.5625q0 0.5 -0.703125 1.078125q-0.703125 0.5625 -1.9375 0.984375q-1.234375 0.40625 -2.71875 0.40625q-2.140625 0 -3.8125 -1.015625q-1.671875 -1.015625 -2.609375 -2.796875q-0.921875 -1.796875 -0.921875 -4.015625q0 -2.140625 0.9375 -3.921875q0.953125 -1.78125 2.640625 -2.828125q1.703125 -1.0625 3.90625 -1.0625zm15.434021 0.234375q2.640625 0 3.921875 1.65625q1.296875 1.65625 1.296875 4.265625l0 8.3125q0 0.375 -0.25 0.625q-0.25 0.25 -0.640625 0.25q-0.375 0 -0.625 -0.25q-0.25 -0.25 -0.25 -0.625l0 -8.3125q0 -1.90625 -0.90625 -3.09375q-0.90625 -1.1875 -2.84375 -1.1875q-1.234375 0 -2.34375 0.59375q-1.09375 0.59375 -1.765625 1.578125q-0.671875 0.96875 -0.671875 2.109375l0 8.3125q0 0.375 -0.25 0.625q-0.25 0.25 -0.625 0.25q-0.390625 0 -0.640625 -0.25q-0.25 -0.25 -0.25 -0.625l0 -19.953125q0 -0.375 0.25 -0.625q0.25 -0.25 0.640625 -0.25q0.375 0 0.625 0.25q0.25 0.25 0.25 0.625l0 8.59375q0.796875 -1.25 2.203125 -2.0625q1.40625 -0.8125 2.875 -0.8125z" fill-rule="nonzero"/><path fill="#247ba0" d="m201.45168 29.895014l0 15.102362l54.153976 16.385826l55.61212 -16.824146l0 -15.742783l-54.70462 16.548557z" fill-rule="evenodd"/><path fill="#247ba0" d="m201.45187 56.74612l0 15.103802l54.154648 16.385574l55.611588 -16.82605l0 -15.742485l-54.05713 16.354744z" fill-rule="evenodd"/><path fill="#247ba0" d="m201.45187 83.59759l0 15.103798l54.154648 16.385574l55.611588 -16.82605l0 -15.742485l-54.05713 16.354744z" fill-rule="evenodd"/><path fill="#247ba0" d="m202.80768 19.727034l53.433075 -14.645669l53.433075 14.645669l-53.433075 14.64567z" fill-rule="evenodd"/><path fill="#1e6787" d="m255.84491 45.559055l0 15.34383l54.376007 -16.346455l0.32733154 -15.677166z" fill-rule="evenodd"/><path fill="#1e6787" d="m255.84491 72.22729l0 15.343826l54.376007 -16.34645l0.32733154 -15.677166z" fill-rule="evenodd"/><path fill="#1e6787" d="m255.84491 99.223465l0 15.343834l54.376007 -16.346458l0.32733154 -15.677162z" fill-rule="evenodd"/></g></svg>