<svg version="1.1" viewBox="0.0 0.0 603.0 403.1706036745407" fill="none" stroke="none" stroke-linecap="square" stroke-miterlimit="10" xmlns:xlink="http://www.w3.org/1999/xlink" xmlns="http://www.w3.org/2000/svg"><clipPath id="p.0"><path d="m0 0l603.0 0l0 403.1706l-603.0 0l0 -403.1706z" clip-rule="nonzero"/></clipPath><g clip-path="url(#p.0)"><path fill="#000000" fill-opacity="0.0" d="m0 0l603.0 0l0 403.1706l-603.0 0z" fill-rule="evenodd"/><path fill="#fce5cd" d="m46.299213 92.60647l0 0c0 -4.68219 3.7956657 -8.4778595 8.4778595 -8.4778595l145.02853 0c2.2484741 0 4.404846 0.89320374 5.994751 2.4831085c1.5899048 1.5899048 2.4831085 3.7462845 2.4831085 5.994751l0 33.910423c0 4.68219 -3.7956696 8.4778595 -8.4778595 8.4778595l-145.02853 0c-4.6821938 0 -8.4778595 -3.7956696 -8.4778595 -8.4778595z" fill-rule="evenodd"/><path stroke="#000000" stroke-width="1.0" stroke-linejoin="round" stroke-linecap="butt" d="m46.299213 92.60647l0 0c0 -4.68219 3.7956657 -8.4778595 8.4778595 -8.4778595l145.02853 0c2.2484741 0 4.404846 0.89320374 5.994751 2.4831085c1.5899048 1.5899048 2.4831085 3.7462845 2.4831085 5.994751l0 33.910423c0 4.68219 -3.7956696 8.4778595 -8.4778595 8.4778595l-145.02853 0c-4.6821938 0 -8.4778595 -3.7956696 -8.4778595 -8.4778595z" fill-rule="evenodd"/><path fill="#000000" d="m99.039894 121.28168l-8.734375 0l0 -23.046875l8.40625 0l0 1.703125l-6.421875 0l0.125 0.796875l0 6.375l-0.125 0.796875l5.984375 0l0 1.828125l-5.984375 0l0.125 0.796875l0 8.125l-0.125 0.796875l6.75 0l0 1.828125zm10.007523 -1.46875l0 -7.078125q0 -4.890625 -0.296875 -6.03125q-0.28125 -1.140625 -1.71875 -1.140625l-3.125 1.125l0.125 0.796875l0 13.796875q-1.40625 0 -1.65625 -0.1875q-0.234375 -0.203125 -0.234375 -1.28125l0 -15.71875q1.40625 0 1.640625 0.125q0.25 0.109375 0.25 0.84375l2.875 -1.1875q2.875 0 3.453125 1.46875q0.578125 1.46875 0.578125 7.421875l0 8.515625q-1.40625 0 -1.65625 -0.1875q-0.234375 -0.203125 -0.234375 -1.28125zm5.2456512 -7.109375l0 -2.046875q0 -2.328125 0.109375 -2.9375q0.125 -0.609375 0.265625 -1.3125q0.140625 -0.703125 0.34375 -0.96875q0.21875 -0.28125 0.515625 -0.65625q0.3125 -0.390625 0.75 -0.53125q1.09375 -0.375 2.21875 -0.375l2.65625 0.421875q0 1.40625 -1.15625 1.40625q-0.21875 0 -0.453125 -0.03125l-1.046875 -0.109375q-1.640625 0 -2.0 1.375q-0.34375 1.359375 -0.34375 4.6875q0 3.3125 0.03125 4.3125q0.03125 0.984375 0.25 2.09375q0.234375 1.109375 0.703125 1.453125q0.484375 0.328125 1.359375 0.328125l2.78125 -0.328125l0 1.484375l-2.78125 0.53125q-1.734375 0 -2.3125 -0.40625q-0.578125 -0.421875 -0.859375 -0.6875q-0.28125 -0.28125 -0.5 -0.984375q-0.203125 -0.703125 -0.296875 -1.171875q-0.09375 -0.484375 -0.171875 -1.578125q-0.0625 -1.859375 -0.0625 -3.96875zm16.703514 8.4375q-0.4375 0.140625 -1.0 0.25q-0.5625 0.109375 -1.34375 0.109375q-0.7812424 0 -1.4062424 -0.09375q-0.625 -0.09375 -1.09375 -0.40625q-0.46875 -0.328125 -0.765625 -0.59375q-0.296875 -0.28125 -0.515625 -0.984375q-0.203125 -0.703125 -0.3125 -1.171875q-0.109375 -0.484375 -0.171875 -1.59375q-0.046875 -1.109375 -0.0625 -1.8125q-0.015625 -0.703125 -0.015625 -2.234375q0 -1.53125 0.015625 -2.21875q0.015625 -0.6875 0.0625 -1.796875q0.0625 -1.109375 0.171875 -1.5625q0.109375 -0.46875 0.3125 -1.15625q0.21875 -0.6875 0.515625 -0.9375q0.296875 -0.265625 0.78125 -0.546875q0.734375 -0.515625 1.9999924 -0.515625q1.265625 0 1.828125 0.109375q0.5625 0.109375 1.0 0.25q0.453125 0.125 0.765625 0.53125q0.328125 0.390625 0.546875 0.671875q0.234375 0.265625 0.359375 0.953125q0.125 0.6875 0.203125 1.125q0.078125 0.421875 0.125 1.453125q0.0625 1.015625 0.0625 1.65625l0 1.984375q0 0 0 0.125q0 0 0 1.953125q0 2.171875 -0.140625 2.859375q-0.125 0.6875 -0.25 1.40625q-0.125 0.703125 -0.359375 0.96875q-0.21875 0.265625 -0.546875 0.671875q-0.3125 0.40625 -0.765625 0.546875zm0.171875 -7.796875l0 -1.09375q0 -4.1875 -0.359375 -5.265625q-0.515625 -1.390625 -2.109375 -1.421875q-1.3124924 0 -1.7656174 0.671875q-0.25 0.453125 -0.421875 0.84375q-0.15625 0.375 -0.21875 1.34375q-0.09375 1.40625 -0.09375 2.71875q0 1.3125 0 2.640625q0 1.328125 0.03125 2.296875q0.03125 0.953125 0.265625 2.03125q0.25 1.0625 0.765625 1.390625q0.515625 0.3125 1.2812424 0.3125q0.765625 0 1.171875 -0.140625q0.421875 -0.15625 0.6875 -0.546875q0.28125 -0.40625 0.421875 -0.796875q0.140625 -0.40625 0.203125 -1.265625q0.140625 -1.25 0.140625 -3.71875zm5.1398926 2.8125q-0.03125 -1.046875 -0.03125 -2.875q0 -1.828125 0.015625 -2.53125q0.015625 -0.703125 0.046875 -1.671875q0.046875 -0.984375 0.125 -1.46875q0.078125 -0.5 0.21875 -1.15625q0.140625 -0.65625 0.359375 -0.96875q0.234375 -0.328125 0.546875 -0.703125q0.328125 -0.390625 0.734375 -0.53125q1.125 -0.375 2.3125 -0.375l2.359375 0.890625l0 -6.90625q1.421875 0 1.640625 0.1875q0.21875 0.1875 0.21875 1.28125l0 21.953125q-1.40625 0 -1.640625 -0.203125q-0.21875 -0.21875 -0.21875 -1.5l-2.515625 1.921875q-2.15625 0 -3.296875 -1.171875q-0.765625 -0.8125 -0.875 -4.171875zm1.96875 -7.671875q-0.078125 1.15625 -0.09375 1.84375q-0.015625 0.6875 -0.015625 3.75q0 3.046875 0.296875 4.15625q0.671875 1.484375 2.046875 1.578125l2.625 -1.4375l-0.140625 -0.8125l0 -10.359375l0.140625 -0.796875l-2.625 -0.84375q-1.1875 0 -1.640625 0.8125q-0.5 0.953125 -0.59375 2.109375zm18.299149 12.484375q-2.46875 0.53125 -3.453125 0.53125q-0.96875 0 -1.5 -0.046875q-0.53125 -0.046875 -0.96875 -0.25q-0.421875 -0.203125 -0.75 -0.34375q-0.3125 -0.15625 -0.578125 -0.578125q-0.25 -0.4375 -0.40625 -0.703125q-0.15625 -0.28125 -0.25 -0.953125q-0.09375 -0.671875 -0.171875 -1.078125q-0.0625 -0.421875 -0.09375 -1.359375q-0.03125 -0.953125 -0.03125 -1.53125l0 -3.609375q0 -2.125 0.09375 -2.734375q0.109375 -0.625 0.203125 -1.328125q0.09375 -0.71875 0.25 -1.015625q0.15625 -0.296875 0.40625 -0.75q0.265625 -0.453125 0.578125 -0.625q0.328125 -0.171875 0.75 -0.375q0.4375 -0.21875 0.96875 -0.28125q0.53125 -0.0625 1.203125 -0.0625q0.671875 0 1.21875 0.09375q0.546875 0.09375 0.90625 0.390625q0.375 0.28125 0.640625 0.546875q0.28125 0.25 0.453125 0.828125q0.171875 0.578125 0.265625 0.984375q0.09375 0.390625 0.140625 1.234375q0.0625 0.84375 0.0625 1.359375l0 1.671875l0.125 1.71875l-6.53125 0.15625l0.125 0.8125q0 4.09375 0.328125 4.734375q0.5 1.046875 1.171875 1.21875q0.453125 0.125 1.75 0.125q1.296875 0 3.09375 -0.421875l0 1.640625zm-6.15625 -12.359375q0 0.578125 0 1.734375l-0.125 0.796875l4.546875 0l-0.15625 -0.828125q0 -2.5625 -0.359375 -3.65625q-0.34375 -1.09375 -1.578125 -1.09375q-1.234375 0 -1.75 0.65625q-0.5 0.65625 -0.578125 2.390625zm9.5772705 11.203125l0 -15.71875q1.40625 0 1.640625 0.125q0.25 0.109375 0.25 0.84375l0 0.34375l2.5625 -1.53125q0.53125 0 1.59375 0.21875q0 1.125 -0.21875 1.296875q-0.203125 0.171875 -1.375 0.171875l-2.734375 1.515625l0.171875 0.796875l0 13.40625q-1.40625 0 -1.65625 -0.1875q-0.234375 -0.203125 -0.234375 -1.28125z" fill-rule="nonzero"/><path fill="#d0e0e3" d="m411.60104 229.76657l0 0c0 -4.68219 3.7956848 -8.4778595 8.477875 -8.4778595l145.0285 0c2.2484741 0 4.404846 0.89320374 5.994751 2.4831085c1.5899048 1.5899048 2.4831543 3.746292 2.4831543 5.994751l0 33.91043c0 4.68219 -3.7957153 8.477844 -8.477905 8.477844l-145.0285 0c-4.68219 0 -8.477875 -3.7956543 -8.477875 -8.477844z" fill-rule="evenodd"/><path stroke="#000000" stroke-width="1.0" stroke-linejoin="round" stroke-linecap="butt" d="m411.60104 229.76657l0 0c0 -4.68219 3.7956848 -8.4778595 8.477875 -8.4778595l145.0285 0c2.2484741 0 4.404846 0.89320374 5.994751 2.4831085c1.5899048 1.5899048 2.4831543 3.746292 2.4831543 5.994751l0 33.91043c0 4.68219 -3.7957153 8.477844 -8.477905 8.477844l-145.0285 0c-4.68219 0 -8.477875 -3.7956543 -8.477875 -8.477844z" fill-rule="evenodd"/><path fill="#000000" d="m460.63098 258.44177l-0.171875 0q-1.375 0 -1.609375 -0.1875q-0.234375 -0.203125 -0.234375 -1.28125l0 -21.57811l0.15625 0q1.375 0 1.609375 0.203125q0.25 0.1875 0.25 1.28125l0 21.562485zm11.2222595 -1.46875l0 -7.0781097q0 -4.890625 -0.296875 -6.03125q-0.28125 -1.140625 -1.71875 -1.140625l-3.125 1.125l0.125 0.796875l0 13.79686q-1.40625 0 -1.65625 -0.1875q-0.234375 -0.203125 -0.234375 -1.28125l0 -15.718735q1.40625 0 1.640625 0.125q0.25 0.109375 0.25 0.84375l2.875 -1.1875q2.875 0 3.453125 1.46875q0.578125 1.46875 0.578125 7.421875l0 8.51561q-1.40625 0 -1.65625 -0.1875q-0.234375 -0.203125 -0.234375 -1.28125zm5.2769165 -3.6562347q-0.03125 -1.046875 -0.03125 -2.875q0 -1.828125 0.015625 -2.53125q0.015625 -0.703125 0.046875 -1.671875q0.046875 -0.984375 0.125 -1.46875q0.078125 -0.5 0.21875 -1.15625q0.140625 -0.65625 0.359375 -0.96875q0.234375 -0.328125 0.546875 -0.703125q0.328125 -0.390625 0.734375 -0.53125q1.125 -0.375 2.3125 -0.375l2.359375 0.890625l0 -6.90625q1.421875 0 1.640625 0.1875q0.21875 0.1875 0.21875 1.28125l0 21.95311q-1.40625 0 -1.640625 -0.203125q-0.21875 -0.21875 -0.21875 -1.5l-2.515625 1.921875q-2.15625 0 -3.296875 -1.171875q-0.765625 -0.8125 -0.875 -4.1718597zm1.96875 -7.671875q-0.078125 1.15625 -0.09375 1.84375q-0.015625 0.6875 -0.015625 3.75q0 3.046875 0.296875 4.15625q0.671875 1.4843597 2.046875 1.5781097l2.625 -1.4374847l-0.140625 -0.8125l0 -10.359375l0.140625 -0.796875l-2.625 -0.84375q-1.1875 0 -1.640625 0.8125q-0.5 0.953125 -0.59375 2.109375zm18.299133 12.48436q-2.46875 0.53125 -3.453125 0.53125q-0.96875 0 -1.5 -0.046875q-0.53125 -0.046875 -0.96875 -0.25q-0.421875 -0.203125 -0.75 -0.34375q-0.3125 -0.15625 -0.578125 -0.578125q-0.25 -0.4375 -0.40625 -0.703125q-0.15625 -0.28125 -0.25 -0.95310974q-0.09375 -0.671875 -0.171875 -1.078125q-0.0625 -0.421875 -0.09375 -1.359375q-0.03125 -0.953125 -0.03125 -1.53125l0 -3.609375q0 -2.125 0.09375 -2.734375q0.109375 -0.625 0.203125 -1.328125q0.09375 -0.71875 0.25 -1.015625q0.15625 -0.296875 0.40625 -0.75q0.265625 -0.453125 0.578125 -0.625q0.328125 -0.171875 0.75 -0.375q0.4375 -0.21875 0.96875 -0.28125q0.53125 -0.0625 1.203125 -0.0625q0.671875 0 1.21875 0.09375q0.546875 0.09375 0.90625 0.390625q0.375 0.28125 0.640625 0.546875q0.28125 0.25 0.453125 0.828125q0.171875 0.578125 0.265625 0.984375q0.09375 0.390625 0.140625 1.234375q0.0625 0.84375 0.0625 1.359375l0 1.671875l0.125 1.71875l-6.53125 0.15625l0.125 0.8125q0 4.09375 0.328125 4.734375q0.5 1.0468597 1.171875 1.2187347q0.453125 0.125 1.75 0.125q1.296875 0 3.09375 -0.421875l0 1.640625zm-6.15625 -12.35936q0 0.578125 0 1.734375l-0.125 0.796875l4.546875 0l-0.15625 -0.828125q0 -2.5625 -0.359375 -3.65625q-0.34375 -1.09375 -1.578125 -1.09375q-1.234375 0 -1.75 0.65625q-0.5 0.65625 -0.578125 2.390625zm8.3272705 12.312485q0 -0.03125 0.390625 -1.109375l2.78125 -7.8749847l-2.859375 -7.84375q1.359375 0 1.671875 0.1875q0.3125 0.171875 0.734375 1.21875l1.5625 4.671875l0.390625 0l1.828125 -6.078125q0.921875 0 1.234375 0.0625q0.328125 0.0625 0.328125 0.328125q0 1.109375 -2.5625 7.8125l3.359375 8.98436l-1.8125 0l-2.53125 -7.2343597l-0.390625 0l-2.5 7.2343597q-0.984375 0 -1.3125 -0.046875q-0.3125 -0.046875 -0.3125 -0.3125zm19.301056 0.046875q-2.46875 0.53125 -3.453125 0.53125q-0.96875 0 -1.5 -0.046875q-0.53125 -0.046875 -0.96875 -0.25q-0.421875 -0.203125 -0.75 -0.34375q-0.31253052 -0.15625 -0.5781555 -0.578125q-0.25 -0.4375 -0.40625 -0.703125q-0.15625 -0.28125 -0.25 -0.95310974q-0.09375 -0.671875 -0.171875 -1.078125q-0.0625 -0.421875 -0.09375 -1.359375q-0.03125 -0.953125 -0.03125 -1.53125l0 -3.609375q0 -2.125 0.09375 -2.734375q0.109375 -0.625 0.203125 -1.328125q0.09375 -0.71875 0.25 -1.015625q0.15625 -0.296875 0.40625 -0.75q0.265625 -0.453125 0.5781555 -0.625q0.328125 -0.171875 0.75 -0.375q0.4375 -0.21875 0.96875 -0.28125q0.53125 -0.0625 1.203125 -0.0625q0.671875 0 1.21875 0.09375q0.546875 0.09375 0.90625 0.390625q0.375 0.28125 0.640625 0.546875q0.28125 0.25 0.453125 0.828125q0.171875 0.578125 0.265625 0.984375q0.09375 0.390625 0.140625 1.234375q0.0625 0.84375 0.0625 1.359375l0 1.671875l0.125 1.71875l-6.53125 0.15625l0.125 0.8125q0 4.09375 0.328125 4.734375q0.5 1.0468597 1.171875 1.2187347q0.453125 0.125 1.75 0.125q1.296875 0 3.09375 -0.421875l0 1.640625zm-6.15625 -12.35936q0 0.578125 0 1.734375l-0.125 0.796875l4.546875 0l-0.15625 -0.828125q0 -2.5625 -0.359375 -3.65625q-0.34375 -1.09375 -1.578125 -1.09375q-1.234375 0 -1.75 0.65625q-0.5 0.65625 -0.578125 2.390625zm9.5772705 11.20311l0 -15.718735q1.40625 0 1.640625 0.125q0.25 0.109375 0.25 0.84375l0 0.34375l2.5625 -1.53125q0.53125 0 1.59375 0.21875q0 1.125 -0.21875 1.296875q-0.203125 0.171875 -1.375 0.171875l-2.734375 1.515625l0.171875 0.796875l0 13.406235q-1.40625 0 -1.65625 -0.1875q-0.234375 -0.203125 -0.234375 -1.28125z" fill-rule="nonzero"/><path fill="#fce5cd" d="m411.60104 92.60647l0 0c0 -4.68219 3.7956848 -8.4778595 8.477875 -8.4778595l145.0285 0c2.2484741 0 4.404846 0.89320374 5.994751 2.4831085c1.5899048 1.5899048 2.4831543 3.7462845 2.4831543 5.994751l0 33.910423c0 4.68219 -3.7957153 8.4778595 -8.477905 8.4778595l-145.0285 0c-4.68219 0 -8.477875 -3.7956696 -8.477875 -8.4778595z" fill-rule="evenodd"/><path stroke="#000000" stroke-width="1.0" stroke-linejoin="round" stroke-linecap="butt" d="m411.60104 92.60647l0 0c0 -4.68219 3.7956848 -8.4778595 8.477875 -8.4778595l145.0285 0c2.2484741 0 4.404846 0.89320374 5.994751 2.4831085c1.5899048 1.5899048 2.4831543 3.7462845 2.4831543 5.994751l0 33.910423c0 4.68219 -3.7957153 8.4778595 -8.477905 8.4778595l-145.0285 0c-4.68219 0 -8.477875 -3.7956696 -8.477875 -8.4778595z" fill-rule="evenodd"/><path fill="#000000" d="m464.34174 121.28168l-8.734375 0l0 -23.046875l8.40625 0l0 1.703125l-6.421875 0l0.125 0.796875l0 6.375l-0.125 0.796875l5.984375 0l0 1.828125l-5.984375 0l0.125 0.796875l0 8.125l-0.125 0.796875l6.75 0l0 1.828125zm10.007507 -1.46875l0 -7.078125q0 -4.890625 -0.296875 -6.03125q-0.28125 -1.140625 -1.71875 -1.140625l-3.125 1.125l0.125 0.796875l0 13.796875q-1.40625 0 -1.65625 -0.1875q-0.234375 -0.203125 -0.234375 -1.28125l0 -15.71875q1.40625 0 1.640625 0.125q0.25 0.109375 0.25 0.84375l2.875 -1.1875q2.875 0 3.453125 1.46875q0.578125 1.46875 0.578125 7.421875l0 8.515625q-1.40625 0 -1.65625 -0.1875q-0.234375 -0.203125 -0.234375 -1.28125zm5.2456665 -7.109375l0 -2.046875q0 -2.328125 0.109375 -2.9375q0.125 -0.609375 0.265625 -1.3125q0.140625 -0.703125 0.34375 -0.96875q0.21875 -0.28125 0.515625 -0.65625q0.3125 -0.390625 0.75 -0.53125q1.09375 -0.375 2.21875 -0.375l2.65625 0.421875q0 1.40625 -1.15625 1.40625q-0.21875 0 -0.453125 -0.03125l-1.046875 -0.109375q-1.640625 0 -2.0 1.375q-0.34375 1.359375 -0.34375 4.6875q0 3.3125 0.03125 4.3125q0.03125 0.984375 0.25 2.09375q0.234375 1.109375 0.703125 1.453125q0.484375 0.328125 1.359375 0.328125l2.78125 -0.328125l0 1.484375l-2.78125 0.53125q-1.734375 0 -2.3125 -0.40625q-0.578125 -0.421875 -0.859375 -0.6875q-0.28125 -0.28125 -0.5 -0.984375q-0.203125 -0.703125 -0.296875 -1.171875q-0.09375 -0.484375 -0.171875 -1.578125q-0.0625 -1.859375 -0.0625 -3.96875zm16.703522 8.4375q-0.4375 0.140625 -1.0 0.25q-0.5625 0.109375 -1.34375 0.109375q-0.78125 0 -1.40625 -0.09375q-0.625 -0.09375 -1.09375 -0.40625q-0.46875 -0.328125 -0.765625 -0.59375q-0.296875 -0.28125 -0.515625 -0.984375q-0.203125 -0.703125 -0.3125 -1.171875q-0.109375 -0.484375 -0.171875 -1.59375q-0.046875 -1.109375 -0.0625 -1.8125q-0.015625 -0.703125 -0.015625 -2.234375q0 -1.53125 0.015625 -2.21875q0.015625 -0.6875 0.0625 -1.796875q0.0625 -1.109375 0.171875 -1.5625q0.109375 -0.46875 0.3125 -1.15625q0.21875 -0.6875 0.515625 -0.9375q0.296875 -0.265625 0.78125 -0.546875q0.734375 -0.515625 2.0 -0.515625q1.265625 0 1.828125 0.109375q0.5625 0.109375 1.0 0.25q0.453125 0.125 0.765625 0.53125q0.328125 0.390625 0.546875 0.671875q0.234375 0.265625 0.359375 0.953125q0.125 0.6875 0.203125 1.125q0.078125 0.421875 0.125 1.453125q0.0625 1.015625 0.0625 1.65625l0 1.984375q0 0 0 0.125q0 0 0 1.953125q0 2.171875 -0.140625 2.859375q-0.125 0.6875 -0.25 1.40625q-0.125 0.703125 -0.359375 0.96875q-0.21875 0.265625 -0.546875 0.671875q-0.3125 0.40625 -0.765625 0.546875zm0.171875 -7.796875l0 -1.09375q0 -4.1875 -0.359375 -5.265625q-0.515625 -1.390625 -2.109375 -1.421875q-1.3125 0 -1.765625 0.671875q-0.25 0.453125 -0.421875 0.84375q-0.15625 0.375 -0.21875 1.34375q-0.09375 1.40625 -0.09375 2.71875q0 1.3125 0 2.640625q0 1.328125 0.03125 2.296875q0.03125 0.953125 0.265625 2.03125q0.25 1.0625 0.765625 1.390625q0.515625 0.3125 1.28125 0.3125q0.765625 0 1.171875 -0.140625q0.421875 -0.15625 0.6875 -0.546875q0.28125 -0.40625 0.421875 -0.796875q0.140625 -0.40625 0.203125 -1.265625q0.140625 -1.25 0.140625 -3.71875zm5.1398926 2.8125q-0.03125 -1.046875 -0.03125 -2.875q0 -1.828125 0.015625 -2.53125q0.015625 -0.703125 0.046875 -1.671875q0.046875 -0.984375 0.125 -1.46875q0.078125 -0.5 0.21875 -1.15625q0.140625 -0.65625 0.359375 -0.96875q0.234375 -0.328125 0.546875 -0.703125q0.328125 -0.390625 0.734375 -0.53125q1.125 -0.375 2.3125 -0.375l2.359375 0.890625l0 -6.90625q1.421875 0 1.640625 0.1875q0.21875 0.1875 0.21875 1.28125l0 21.953125q-1.40625 0 -1.640625 -0.203125q-0.21875 -0.21875 -0.21875 -1.5l-2.515625 1.921875q-2.15625 0 -3.296875 -1.171875q-0.765625 -0.8125 -0.875 -4.171875zm1.96875 -7.671875q-0.078125 1.15625 -0.09375 1.84375q-0.015625 0.6875 -0.015625 3.75q0 3.046875 0.296875 4.15625q0.671875 1.484375 2.046875 1.578125l2.625 -1.4375l-0.140625 -0.8125l0 -10.359375l0.140625 -0.796875l-2.625 -0.84375q-1.1875 0 -1.640625 0.8125q-0.5 0.953125 -0.59375 2.109375zm18.299164 12.484375q-2.46875 0.53125 -3.453125 0.53125q-0.96875 0 -1.5 -0.046875q-0.53125 -0.046875 -0.96875 -0.25q-0.421875 -0.203125 -0.75 -0.34375q-0.3125 -0.15625 -0.578125 -0.578125q-0.25 -0.4375 -0.40625 -0.703125q-0.15625 -0.28125 -0.25 -0.953125q-0.09375 -0.671875 -0.171875 -1.078125q-0.0625 -0.421875 -0.09375 -1.359375q-0.03125 -0.953125 -0.03125 -1.53125l0 -3.609375q0 -2.125 0.09375 -2.734375q0.109375 -0.625 0.203125 -1.328125q0.09375 -0.71875 0.25 -1.015625q0.15625 -0.296875 0.40625 -0.75q0.265625 -0.453125 0.578125 -0.625q0.328125 -0.171875 0.75 -0.375q0.4375 -0.21875 0.96875 -0.28125q0.53125 -0.0625 1.203125 -0.0625q0.671875 0 1.21875 0.09375q0.546875 0.09375 0.90625 0.390625q0.375 0.28125 0.640625 0.546875q0.28125 0.25 0.453125 0.828125q0.171875 0.578125 0.265625 0.984375q0.09375 0.390625 0.140625 1.234375q0.0625 0.84375 0.0625 1.359375l0 1.671875l0.125 1.71875l-6.53125 0.15625l0.125 0.8125q0 4.09375 0.328125 4.734375q0.5 1.046875 1.171875 1.21875q0.453125 0.125 1.75 0.125q1.296875 0 3.09375 -0.421875l0 1.640625zm-6.15625 -12.359375q0 0.578125 0 1.734375l-0.125 0.796875l4.546875 0l-0.15625 -0.828125q0 -2.5625 -0.359375 -3.65625q-0.34375 -1.09375 -1.578125 -1.09375q-1.234375 0 -1.75 0.65625q-0.5 0.65625 -0.578125 2.390625zm9.5772705 11.203125l0 -15.71875q1.40625 0 1.640625 0.125q0.25 0.109375 0.25 0.84375l0 0.34375l2.5625 -1.53125q0.53125 0 1.59375 0.21875q0 1.125 -0.21875 1.296875q-0.203125 0.171875 -1.375 0.171875l-2.734375 1.515625l0.171875 0.796875l0 13.40625q-1.40625 0 -1.65625 -0.1875q-0.234375 -0.203125 -0.234375 -1.28125z" fill-rule="nonzero"/><path fill="#efefef" d="m457.87927 328.28696l0 0c0 -7.81073 15.541931 -14.142609 34.713898 -14.142609c19.171967 0 34.713898 6.3318787 34.713898 14.142609l0 56.570435c0 7.8107605 -15.541931 14.142609 -34.713898 14.142609c-19.171967 0 -34.713898 -6.331848 -34.713898 -14.142609z" fill-rule="evenodd"/><path fill="#000000" fill-opacity="0.0" d="m527.30707 328.28696l0 0c0 7.8107605 -15.541931 14.142609 -34.713898 14.142609c-19.171967 0 -34.713898 -6.331848 -34.713898 -14.142609" fill-rule="evenodd"/><path fill="#000000" fill-opacity="0.0" d="m457.87927 328.28696l0 0c0 -7.81073 15.541931 -14.142609 34.713898 -14.142609c19.171967 0 34.713898 6.3318787 34.713898 14.142609l0 56.570435c0 7.8107605 -15.541931 14.142609 -34.713898 14.142609c-19.171967 0 -34.713898 -6.331848 -34.713898 -14.142609z" fill-rule="evenodd"/><path stroke="#000000" stroke-width="1.0" stroke-linejoin="round" stroke-linecap="butt" d="m527.30707 328.28696l0 0c0 7.8107605 -15.541931 14.142609 -34.713898 14.142609c-19.171967 0 -34.713898 -6.331848 -34.713898 -14.142609" fill-rule="evenodd"/><path stroke="#000000" stroke-width="1.0" stroke-linejoin="round" stroke-linecap="butt" d="m457.87927 328.28696l0 0c0 -7.81073 15.541931 -14.142609 34.713898 -14.142609c19.171967 0 34.713898 6.3318787 34.713898 14.142609l0 56.570435c0 7.8107605 -15.541931 14.142609 -34.713898 14.142609c-19.171967 0 -34.713898 -6.331848 -34.713898 -14.142609z" fill-rule="evenodd"/><path fill="#000000" d="m472.77872 370.71472l0 -15.8125l0.5 0q1.328125 0 1.546875 0.1875q0.234375 0.171875 0.234375 1.28125l0 15.8125l-0.546875 0q-1.296875 0 -1.515625 -0.171875q-0.21875 -0.1875 -0.21875 -1.296875zm10.316254 -4.9375l0.03125 -2.109375q0 -0.96875 -0.046875 -1.4375q-0.09375 -1.015625 -1.125 -1.0625l-2.21875 0.640625l0.21875 0.671875l0 9.703125q-1.609375 0 -1.875 -0.171875q-0.265625 -0.1875 -0.265625 -1.265625l0 -11.453125q1.40625 0 1.765625 0.078125q0.359375 0.0625 0.375 0.421875l1.78125 -0.671875q1.46875 0 1.921875 0.203125q0.453125 0.1875 0.6875 0.328125q0.25 0.140625 0.4375 0.59375q0.1875 0.4375 0.25 0.8125q0.078125 0.375 0.15625 1.1875q0.078125 1.171875 0.078125 3.546875l0 6.390625q-1.609375 0 -1.890625 -0.171875q-0.28125 -0.1875 -0.28125 -1.265625l0 -4.96875zm4.475586 2.5625q-0.03125 -0.78125 -0.03125 -2.5625q0 -1.78125 0.03125 -2.5625q0.046875 -0.796875 0.21875 -1.796875q0.1875 -1.0 0.59375 -1.375q0.953125 -0.921875 2.953125 -0.921875l1.34375 0.484375l0 -4.703125q1.609375 0 1.875 0.1875q0.265625 0.171875 0.265625 1.28125l0 15.8125q-1.453125 0 -1.796875 -0.109375q-0.328125 -0.125 -0.34375 -0.703125l-1.46875 0.984375q-1.890625 0 -2.875 -0.890625q-0.65625 -0.59375 -0.765625 -3.125zm5.34375 1.1875l-0.234375 -0.78125l0 -6.421875l0.21875 -0.671875l-1.875 -0.484375q-0.921875 0.078125 -1.140625 1.015625q-0.203125 0.921875 -0.203125 3.71875q0 2.78125 0.21875 3.5q0.265625 0.890625 1.140625 0.90625l1.875 -0.78125zm8.046967 0.78125q1.625 0 3.3125 -0.234375l0 1.875q-2.234375 0.40625 -3.171875 0.40625q-0.9375 0 -1.5 -0.140625q-0.5625 -0.125 -0.96875 -0.296875q-0.40625 -0.1875 -0.671875 -0.609375q-0.265625 -0.4375 -0.421875 -0.8125q-0.140625 -0.375 -0.203125 -1.140625q-0.09375 -1.03125 -0.09375 -2.1875q0 -1.171875 0 -1.96875l0 -1.25q0 -1.703125 0.09375 -2.125q0.09375 -0.421875 0.203125 -0.90625q0.125 -0.5 0.3125 -0.703125q0.203125 -0.203125 0.46875 -0.46875q0.28125 -0.28125 0.640625 -0.375q1.125 -0.25 2.015625 -0.25q0.890625 0 1.53125 0.28125q0.640625 0.28125 0.984375 0.6875q0.34375 0.40625 0.53125 1.15625q0.3125 1.171875 0.3125 3.0625l0.078125 1.640625l-5.234375 0.109375l0.1875 0.5625q0 2.375 0.234375 3.03125q0.234375 0.65625 1.359375 0.65625zm1.25 -6.84375q-0.03125 -1.3125 -0.265625 -1.796875q-0.21875 -0.5 -1.09375 -0.5q-0.859375 0 -1.109375 0.4375q-0.25 0.421875 -0.25 1.859375l-0.1875 0.53125l3.140625 0l-0.234375 -0.53125zm8.564728 -4.171875q0.953125 0 1.390625 0.09375q0.4375 0.09375 0.4375 0.46875q0 0.375 -1.953125 5.578125l2.71875 6.75l-2.234375 0l-1.78125 -4.984375l-0.1875 0l-1.5625 4.984375q-1.5625 0 -1.734375 -0.140625q-0.25 -0.265625 -0.09375 -0.609375l2.328125 -6.203125l-2.34375 -5.9375q1.65625 0 2.015625 0.15625q0.359375 0.15625 0.6875 1.078125l0.875 2.96875l0.203125 0l1.234375 -4.203125z" fill-rule="nonzero"/><path fill="#000000" fill-opacity="0.0" d="m46.299213 0l161.98425 0l0 60.440945l-161.98425 0z" fill-rule="evenodd"/><path fill="#000000" d="m108.78741 35.00875l-0.28125 0.03125l-0.3125 -0.046875l0 -0.40625q0 -0.5625 0.15625 -0.65625l2.265625 -1.8125q-1.875 -0.359375 -2.578125 -2.4375q-0.6875 -2.078125 -0.6875 -6.640625q0 -4.5625 0.890625 -6.5625q0.890625 -2.0 3.328125 -2.0q2.453125 0 3.328125 2.0q0.875 2.0 0.875 6.4375q0 4.421875 -0.59375 6.484375q-0.578125 2.046875 -2.171875 2.59375l-2.640625 1.890625q0.65625 0.046875 4.046875 0.484375q3.40625 0.4375 4.0 0.4375q0.59375 0 0.6875 -0.03125l0.3125 0.046875l0 0.453125q0 0.65625 -0.1875 0.765625q-0.171875 0.109375 -1.0625 0.109375q-0.875 0 -4.703125 -0.578125q-3.828125 -0.5625 -4.671875 -0.5625zm2.78125 -4.171875q1.53125 0 2.109375 -1.84375q0.578125 -1.84375 0.578125 -5.71875q0 -5.734375 -1.34375 -6.953125q-0.53125 -0.484375 -1.34375 -0.484375q-1.5625 0 -2.140625 1.796875q-0.5625 1.78125 -0.5625 5.625q0 5.828125 1.390625 7.09375q0.515625 0.484375 1.3125 0.484375zm6.763214 -5.296875l0 -6.390625q1.0625 0 1.234375 0.140625q0.1875 0.125 0.1875 0.96875l0 5.234375q0 2.78125 0.15625 3.796875q0.15625 1.015625 0.484375 1.328125q0.328125 0.3125 0.875 0.3125l2.375 -1.09375l-0.125 -0.609375l0 -10.078125q1.0625 0 1.234375 0.140625q0.1875 0.125 0.1875 0.96875l0 11.78125q-1.0625 0 -1.25 -0.109375q-0.171875 -0.125 -0.171875 -0.84375l-2.15625 1.125q-1.515625 0 -2.375 -0.9375q-0.546875 -0.625 -0.625 -3.171875q-0.03125 -0.796875 -0.03125 -2.5625zm15.271233 6.265625q-1.84375 0.40625 -2.578125 0.40625q-0.734375 0 -1.140625 -0.046875q-0.390625 -0.03125 -0.71875 -0.1875q-0.3125 -0.15625 -0.5625 -0.265625q-0.234375 -0.109375 -0.421875 -0.421875q-0.18750763 -0.328125 -0.31250763 -0.53125q-0.125 -0.203125 -0.203125 -0.703125q-0.0625 -0.515625 -0.109375 -0.828125q-0.046875 -0.3125 -0.078125 -1.015625q-0.015625 -0.703125 -0.015625 -1.140625l0 -2.71875q0 -1.578125 0.0625 -2.046875q0.078125 -0.46875 0.140625 -0.984375q0.078125 -0.53125 0.203125 -0.765625q0.125 -0.234375 0.31250763 -0.5625q0.1875 -0.34375 0.421875 -0.46875q0.25 -0.125 0.5625 -0.28125q0.328125 -0.15625 0.71875 -0.203125q0.40625 -0.0625 0.90625 -0.0625q0.515625 0 0.921875 0.078125q0.40625 0.078125 0.671875 0.296875q0.28125 0.203125 0.484375 0.40625q0.203125 0.1875 0.328125 0.625q0.140625 0.421875 0.203125 0.734375q0.078125 0.296875 0.109375 0.9375q0.046875 0.625 0.046875 1.015625l0 1.234375l0.09375 1.296875l-4.890625 0.125l0.09375 0.59375q0 3.078125 0.234375 3.5625q0.390625 0.78125 0.890625 0.90625q0.34375 0.09375 1.3125 0.09375q0.96875 0 2.3125 -0.3125l0 1.234375zm-4.609375 -9.265625q0 0.421875 0 1.296875l-0.09375 0.59375l3.40625 0l-0.125 -0.625q0 -1.921875 -0.265625 -2.734375q-0.25 -0.8125 -1.1875 -0.8125q-0.921875 0 -1.3125 0.5q-0.375 0.484375 -0.421875 1.78125zm7.1750946 8.390625l0 -11.78125q1.0625 0 1.234375 0.09375q0.1875 0.078125 0.1875 0.625l0 0.265625l1.921875 -1.15625q0.40625 0 1.1875 0.171875q0 0.84375 -0.15625 0.984375q-0.15625 0.125 -1.03125 0.125l-2.046875 1.125l0.125 0.59375l0 10.0625q-1.0625 0 -1.25 -0.140625q-0.171875 -0.140625 -0.171875 -0.96875zm5.6434784 5.90625l0 -1.125q1.125 0 1.765625 -0.78125q0.640625 -0.78125 0.640625 -1.953125q0 -0.484375 -2.546875 -13.828125q1.03125 0 1.234375 0.140625q0.203125 0.125 0.375 0.96875l1.671875 10.09375l0.3125 0l1.75 -11.203125q1.15625 0 1.234375 0.21875q0.046875 0.078125 0.046875 0.265625q0 1.21875 -2.328125 12.40625q-0.046875 0.21875 -0.171875 0.890625q-0.125 0.671875 -0.1875 0.90625q-0.046875 0.25 -0.21875 0.78125q-0.171875 0.546875 -0.34375 0.75q-0.15625 0.21875 -0.46875 0.578125q-0.296875 0.359375 -0.65625 0.515625q-1.0 0.375 -2.109375 0.375z" fill-rule="nonzero"/><path fill="#000000" fill-opacity="0.0" d="m411.60104 0l161.98428 0l0 60.440945l-161.98428 0z" fill-rule="evenodd"/><path fill="#000000" d="m464.9309 21.79l0 3.09375q0 1.953125 -0.109375 2.671875q-0.109375 0.71875 -0.25 1.453125q-0.140625 0.734375 -0.34375 1.125q-0.203125 0.375 -0.515625 0.84375q-0.3125 0.46875 -0.71875 0.671875q-0.9375 0.5625 -2.171875 0.5625l-3.859375 -0.171875l0 -17.328125l3.859375 -0.234375q1.296875 0 1.84375 0.34375q0.5625 0.34375 0.859375 0.59375q0.296875 0.25 0.515625 0.734375q0.21875 0.484375 0.375 0.84375q0.15625 0.359375 0.25 1.046875q0.09375 0.6875 0.140625 1.140625q0.125 0.78125 0.125 2.609375zm-4.109375 9.046875q0.984375 0 1.5 -0.625q0.28125 -0.328125 0.46875 -0.65625q0.203125 -0.34375 0.3125 -0.984375q0.109375 -0.640625 0.171875 -1.078125q0.078125 -0.4375 0.109375 -1.3125q0.03125 -0.890625 0.03125 -1.390625l0 -3.0625q0 -1.78125 -0.109375 -2.4375q-0.09375 -0.671875 -0.203125 -1.28125q-0.109375 -0.625 -0.3125 -0.9375q-0.1875 -0.3125 -0.46875 -0.625q-0.484375 -0.609375 -1.5 -0.609375l-2.4375 0l0.09375 0.609375l0 13.796875l-0.09375 0.59375l2.4375 0zm11.874847 1.09375q-0.328125 0.109375 -0.75 0.1875q-0.40625 0.09375 -1.0 0.09375q-0.59375 0 -1.0625 -0.078125q-0.46875 -0.0625 -0.8125 -0.296875q-0.34375 -0.25 -0.578125 -0.453125q-0.21875 -0.203125 -0.375 -0.734375q-0.15625 -0.53125 -0.25 -0.890625q-0.078125 -0.359375 -0.125 -1.1875q-0.03125 -0.828125 -0.046875 -1.359375q0 -0.53125 0 -1.671875q0 -1.15625 0 -1.671875q0.015625 -0.515625 0.046875 -1.34375q0.046875 -0.828125 0.125 -1.171875q0.09375 -0.359375 0.25 -0.875q0.15625 -0.515625 0.375 -0.703125q0.234375 -0.1875 0.59375 -0.40625q0.546875 -0.390625 1.5 -0.390625q0.953125 0 1.359375 0.09375q0.421875 0.078125 0.75 0.171875q0.34375 0.09375 0.578125 0.40625q0.25 0.296875 0.421875 0.5q0.171875 0.203125 0.265625 0.71875q0.09375 0.515625 0.15625 0.84375q0.0625 0.3125 0.09375 1.09375q0.03125 0.765625 0.03125 1.25l0 1.484375q0 0 0 0.09375q0 0 0 1.46875q0 1.625 -0.09375 2.140625q-0.09375 0.515625 -0.1875 1.046875q-0.09375 0.53125 -0.265625 0.734375q-0.171875 0.203125 -0.421875 0.5q-0.234375 0.296875 -0.578125 0.40625zm0.140625 -5.84375l0 -0.8125q0 -3.140625 -0.265625 -3.96875q-0.390625 -1.03125 -1.59375 -1.046875q-0.984375 0 -1.3125 0.5q-0.203125 0.34375 -0.328125 0.625q-0.109375 0.28125 -0.15625 1.015625q-0.078125 1.046875 -0.078125 2.03125q0 0.984375 0 1.984375q0 1.0 0.015625 1.71875q0.03125 0.71875 0.21875 1.53125q0.1875 0.796875 0.5625 1.03125q0.390625 0.234375 0.953125 0.234375q0.578125 0 0.890625 -0.09375q0.3125 -0.109375 0.515625 -0.40625q0.203125 -0.3125 0.3125 -0.609375q0.109375 -0.296875 0.15625 -0.953125q0.109375 -0.9375 0.109375 -2.78125zm3.8353577 -0.484375l0 -1.53125q0 -1.75 0.078125 -2.203125q0.09375 -0.453125 0.1875 -0.984375q0.109375 -0.53125 0.265625 -0.734375q0.15625 -0.203125 0.390625 -0.484375q0.234375 -0.296875 0.5625 -0.390625q0.8125 -0.296875 1.65625 -0.296875l2.0 0.3125q0 1.0625 -0.875 1.0625q-0.171875 0 -0.328125 -0.03125l-0.796875 -0.0625q-1.21875 0 -1.484375 1.015625q-0.265625 1.015625 -0.265625 3.515625q0 2.5 0.015625 3.25q0.03125 0.734375 0.1875 1.5625q0.171875 0.828125 0.53125 1.078125q0.375 0.25 1.015625 0.25l2.09375 -0.234375l0 1.109375l-2.09375 0.40625q-1.296875 0 -1.734375 -0.3125q-0.421875 -0.3125 -0.640625 -0.515625q-0.21875 -0.203125 -0.375 -0.734375q-0.15625 -0.53125 -0.234375 -0.890625q-0.0625 -0.359375 -0.109375 -1.171875q-0.046875 -1.390625 -0.046875 -2.984375zm7.621338 -0.0625l0 -6.390625q1.0625 0 1.234375 0.140625q0.1875 0.125 0.1875 0.96875l0 5.234375q0 2.78125 0.15625 3.796875q0.15625 1.015625 0.484375 1.328125q0.328125 0.3125 0.875 0.3125l2.375 -1.09375l-0.125 -0.609375l0 -10.078125q1.0625 0 1.234375 0.140625q0.1875 0.125 0.1875 0.96875l0 11.78125q-1.0625 0 -1.25 -0.109375q-0.171875 -0.125 -0.171875 -0.84375l-2.15625 1.125q-1.515625 0 -2.375 -0.9375q-0.546875 -0.625 -0.625 -3.171875q-0.03125 -0.796875 -0.03125 -2.5625zm19.64624 5.390625l0 -5.296875q0 0 0 -0.1875q0 -3.5625 -0.21875 -4.375q-0.21875 -0.8125 -1.375 -0.8125l-2.234375 0.734375l0.09375 0.609375l0 10.4375q-1.03125 0 -1.21875 -0.140625q-0.171875 -0.140625 -0.171875 -0.96875l-0.015625 -5.296875q0 -0.09375 0 -0.65625q0 -0.5625 0 -0.96875q0 -0.421875 -0.015625 -0.78125q-0.015625 -0.375 -0.046875 -1.0q-0.03125 -0.625 -0.140625 -0.890625q-0.09375 -0.265625 -0.25 -0.578125q-0.296875 -0.5 -1.109375 -0.5l-2.25 0.84375l0.09375 0.59375l0 10.34375q-1.0625 0 -1.25 -0.140625q-0.171875 -0.140625 -0.171875 -0.96875l0 -11.78125q1.0625 0 1.234375 0.09375q0.1875 0.078125 0.1875 0.625l2.15625 -0.890625q1.734375 0 2.546875 1.015625l2.5625 -1.015625q2.1875 0 2.609375 1.03125q0.421875 1.015625 0.421875 5.640625l0 6.390625q-1.078125 0 -1.265625 -0.140625q-0.171875 -0.140625 -0.171875 -0.96875zm10.096924 0.875q-1.84375 0.40625 -2.5780945 0.40625q-0.734375 0 -1.140625 -0.046875q-0.390625 -0.03125 -0.71875 -0.1875q-0.3125 -0.15625 -0.5625 -0.265625q-0.234375 -0.109375 -0.421875 -0.421875q-0.1875 -0.328125 -0.3125 -0.53125q-0.125 -0.203125 -0.203125 -0.703125q-0.0625 -0.515625 -0.109375 -0.828125q-0.046875 -0.3125 -0.078125 -1.015625q-0.015625 -0.703125 -0.015625 -1.140625l0 -2.71875q0 -1.578125 0.0625 -2.046875q0.078125 -0.46875 0.140625 -0.984375q0.078125 -0.53125 0.203125 -0.765625q0.125 -0.234375 0.3125 -0.5625q0.1875 -0.34375 0.421875 -0.46875q0.25 -0.125 0.5625 -0.28125q0.328125 -0.15625 0.71875 -0.203125q0.40625 -0.0625 0.90625 -0.0625q0.515625 0 0.9218445 0.078125q0.40625 0.078125 0.671875 0.296875q0.28125 0.203125 0.484375 0.40625q0.203125 0.1875 0.328125 0.625q0.140625 0.421875 0.203125 0.734375q0.078125 0.296875 0.109375 0.9375q0.046875 0.625 0.046875 1.015625l0 1.234375l0.09375 1.296875l-4.8905945 0.125l0.09375 0.59375q0 3.078125 0.234375 3.5625q0.390625 0.78125 0.890625 0.90625q0.34375 0.09375 1.3125 0.09375q0.9687195 0 2.3124695 -0.3125l0 1.234375zm-4.6093445 -9.265625q0 0.421875 0 1.296875l-0.09375 0.59375l3.4062195 0l-0.125 -0.625q0 -1.921875 -0.265625 -2.734375q-0.25 -0.8125 -1.1874695 -0.8125q-0.921875 0 -1.3125 0.5q-0.375 0.484375 -0.421875 1.78125zm12.362579 8.390625l0 -5.296875q0 -3.671875 -0.21875 -4.515625q-0.21875 -0.859375 -1.296875 -0.859375l-2.34375 0.84375l0.09375 0.59375l0 10.34375q-1.0625 0 -1.25 -0.140625q-0.171875 -0.140625 -0.171875 -0.96875l0 -11.78125q1.0625 0 1.234375 0.09375q0.1875 0.078125 0.1875 0.625l2.15625 -0.890625q2.15625 0 2.59375 1.109375q0.4375 1.109375 0.4375 5.5625l0 6.390625q-1.0625 0 -1.25 -0.140625q-0.171875 -0.140625 -0.171875 -0.96875zm4.1099854 -4.359375l0 -5.515625l0.09375 -0.609375l-1.03125 0l0 -1.296875l1.03125 0l-0.09375 -0.84375l0 -1.046875q1.046875 0 1.21875 0.140625q0.1875 0.140625 0.1875 0.953125l-0.09375 0.796875l2.203125 0q0 0.890625 -0.15625 1.09375q-0.15625 0.203125 -0.984375 0.203125l-1.0625 0l0.09375 0.609375l0 5.515625q0 2.734375 0.140625 3.546875q0.15625 0.8125 0.828125 0.8125l1.625 0l0 1.109375l-1.65625 0.125q-1.65625 0 -2.0 -1.015625q-0.34375 -1.03125 -0.34375 -4.578125z" fill-rule="nonzero"/><path fill="#000000" fill-opacity="0.0" d="m365.30185 155.56955l254.58267 0l0 40.56694l-254.58267 0z" fill-rule="evenodd"/><path fill="#000000" d="m392.53223 186.22392l-4.5 0l0 -16.921875l4.5 0l0 1.265625l-2.984375 0l0 14.375l2.984375 0l0 1.28125zm12.069794 -9.6875q0 1.375 -0.28125 2.5q-0.265625 1.125 -0.828125 1.9375q-0.546875 0.796875 -1.375 1.234375q-0.8125 0.4375 -1.9375 0.4375q-0.953125 0 -1.734375 -0.359375q-0.78125 -0.359375 -1.34375 -1.09375q-0.546875 -0.75 -0.859375 -1.90625q-0.296875 -1.15625 -0.296875 -2.75q0 -1.359375 0.28125 -2.484375q0.28125 -1.140625 0.828125 -1.9375q0.546875 -0.8125 1.375 -1.25q0.84375 -0.4375 1.9375 -0.4375q0.953125 0 1.734375 0.359375q0.796875 0.359375 1.34375 1.109375q0.5625 0.75 0.859375 1.90625q0.296875 1.15625 0.296875 2.734375zm-1.59375 0.0625q0 -0.3125 -0.03125 -0.609375q-0.015625 -0.3125 -0.046875 -0.609375l-5.046875 3.75q0.140625 0.46875 0.34375 0.875q0.21875 0.390625 0.515625 0.6875q0.296875 0.28125 0.671875 0.453125q0.375 0.15625 0.859375 0.15625q0.625 0 1.125 -0.296875q0.515625 -0.3125 0.859375 -0.90625q0.359375 -0.59375 0.546875 -1.46875q0.203125 -0.875 0.203125 -2.03125zm-5.453125 -0.109375q0 0.28125 0 0.5625q0 0.28125 0.03125 0.546875l5.046875 -3.734375q-0.140625 -0.453125 -0.359375 -0.828125q-0.203125 -0.390625 -0.5 -0.671875q-0.28125 -0.28125 -0.65625 -0.4375q-0.375 -0.15625 -0.84375 -0.15625q-0.609375 0 -1.125 0.3125q-0.5 0.296875 -0.859375 0.890625q-0.359375 0.59375 -0.546875 1.484375q-0.1875 0.875 -0.1875 2.03125zm12.913544 3.125q0.296875 0 0.578125 0.125q0.28125 0.125 0.484375 0.328125q0.203125 0.203125 0.3125 0.484375q0.125 0.28125 0.125 0.59375q0 0.3125 -0.125 0.59375q-0.109375 0.265625 -0.3125 0.46875q-0.203125 0.203125 -0.484375 0.3125q-0.28125 0.125 -0.578125 0.125q-0.328125 0 -0.609375 -0.125q-0.265625 -0.109375 -0.46875 -0.3125q-0.203125 -0.203125 -0.328125 -0.46875q-0.109375 -0.28125 -0.109375 -0.59375q0 -0.3125 0.109375 -0.59375q0.125 -0.28125 0.328125 -0.484375q0.203125 -0.203125 0.46875 -0.328125q0.28125 -0.125 0.609375 -0.125zm14.147919 -0.734375q0 0.78125 -0.328125 1.46875q-0.3125 0.6875 -0.953125 1.203125q-0.625 0.515625 -1.59375 0.8125q-0.96875 0.28125 -2.25 0.28125q-0.71875 0 -1.28125 -0.046875q-0.5625 -0.03125 -1.046875 -0.109375l0 -1.421875q0.5625 0.09375 1.1875 0.15625q0.625 0.046875 1.28125 0.046875q0.890625 0 1.515625 -0.15625q0.640625 -0.15625 1.046875 -0.453125q0.40625 -0.296875 0.578125 -0.71875q0.1875 -0.4375 0.1875 -0.984375q0 -0.484375 -0.21875 -0.84375q-0.21875 -0.375 -0.625 -0.609375q-0.390625 -0.25 -0.9375 -0.375q-0.546875 -0.125 -1.203125 -0.125l-1.359375 0l0 -1.296875l1.375 0q0.53125 0 0.96875 -0.140625q0.453125 -0.140625 0.765625 -0.40625q0.3125 -0.265625 0.484375 -0.65625q0.171875 -0.390625 0.171875 -0.875q0 -0.953125 -0.59375 -1.390625q-0.578125 -0.4375 -1.703125 -0.4375q-0.609375 0 -1.25 0.125q-0.625 0.109375 -1.359375 0.34375l0 -1.390625q0.3125 -0.109375 0.65625 -0.1875q0.359375 -0.09375 0.703125 -0.140625q0.359375 -0.0625 0.703125 -0.09375q0.34375 -0.03125 0.65625 -0.03125q0.953125 0 1.671875 0.203125q0.71875 0.203125 1.203125 0.59375q0.484375 0.375 0.71875 0.921875q0.25 0.546875 0.25 1.21875q0 1.03125 -0.53125 1.71875q-0.515625 0.6875 -1.421875 1.109375q0.46875 0.0625 0.90625 0.28125q0.453125 0.21875 0.8125 0.5625q0.375 0.34375 0.59375 0.8125q0.21875 0.453125 0.21875 1.03125zm3.4760437 5.484375q0.453125 0.015625 0.890625 -0.09375q0.4375 -0.09375 0.765625 -0.296875q0.34375 -0.1875 0.546875 -0.484375q0.203125 -0.296875 0.203125 -0.65625q0 -0.390625 -0.140625 -0.625q-0.125 -0.234375 -0.296875 -0.4375q-0.15625 -0.203125 -0.296875 -0.421875q-0.125 -0.234375 -0.125 -0.625q0 -0.1875 0.0625 -0.390625q0.078125 -0.21875 0.21875 -0.390625q0.15625 -0.171875 0.390625 -0.28125q0.234375 -0.109375 0.5625 -0.109375q0.3125 0 0.609375 0.140625q0.296875 0.125 0.515625 0.40625q0.21875 0.265625 0.34375 0.6875q0.140625 0.40625 0.140625 0.953125q0 0.765625 -0.28125 1.453125q-0.265625 0.703125 -0.828125 1.234375q-0.546875 0.546875 -1.375 0.859375q-0.8125 0.3125 -1.90625 0.3125l0 -1.234375zm27.795837 -7.828125q0 1.375 -0.28125 2.5q-0.265625 1.125 -0.828125 1.9375q-0.546875 0.796875 -1.375 1.234375q-0.8125 0.4375 -1.9375 0.4375q-0.953125 0 -1.734375 -0.359375q-0.78125 -0.359375 -1.34375 -1.09375q-0.546875 -0.75 -0.859375 -1.90625q-0.296875 -1.15625 -0.296875 -2.75q0 -1.359375 0.28125 -2.484375q0.28125 -1.140625 0.828125 -1.9375q0.546875 -0.8125 1.375 -1.25q0.84375 -0.4375 1.9375 -0.4375q0.953125 0 1.734375 0.359375q0.796875 0.359375 1.34375 1.109375q0.5625 0.75 0.859375 1.90625q0.296875 1.15625 0.296875 2.734375zm-1.59375 0.0625q0 -0.3125 -0.03125 -0.609375q-0.015625 -0.3125 -0.046875 -0.609375l-5.046875 3.75q0.140625 0.46875 0.34375 0.875q0.21875 0.390625 0.515625 0.6875q0.296875 0.28125 0.671875 0.453125q0.375 0.15625 0.859375 0.15625q0.625 0 1.125 -0.296875q0.515625 -0.3125 0.859375 -0.90625q0.359375 -0.59375 0.546875 -1.46875q0.203125 -0.875 0.203125 -2.03125zm-5.453125 -0.109375q0 0.28125 0 0.5625q0 0.28125 0.03125 0.546875l5.046875 -3.734375q-0.140625 -0.453125 -0.359375 -0.828125q-0.203125 -0.390625 -0.5 -0.671875q-0.28125 -0.28125 -0.65625 -0.4375q-0.375 -0.15625 -0.84375 -0.15625q-0.609375 0 -1.125 0.3125q-0.5 0.296875 -0.859375 0.890625q-0.359375 0.59375 -0.546875 1.484375q-0.1875 0.875 -0.1875 2.03125zm12.913544 3.125q0.296875 0 0.578125 0.125q0.28125 0.125 0.484375 0.328125q0.203125 0.203125 0.3125 0.484375q0.125 0.28125 0.125 0.59375q0 0.3125 -0.125 0.59375q-0.109375 0.265625 -0.3125 0.46875q-0.203125 0.203125 -0.484375 0.3125q-0.28125 0.125 -0.578125 0.125q-0.328125 0 -0.609375 -0.125q-0.265625 -0.109375 -0.46875 -0.3125q-0.203125 -0.203125 -0.328125 -0.46875q-0.109375 -0.28125 -0.109375 -0.59375q0 -0.3125 0.109375 -0.59375q0.125 -0.28125 0.328125 -0.484375q0.203125 -0.203125 0.46875 -0.328125q0.28125 -0.125 0.609375 -0.125zm14.976044 0.25l-2.03125 0l0 2.625l-1.625 0l0 -2.625l-5.734375 0l0 -1.40625l5.078125 -7.875l2.28125 0l0 7.875l2.03125 0l0 1.40625zm-3.65625 -7.75l-4.140625 6.34375l4.140625 0l0 -6.34375zm6.3041687 12.25q0.453125 0.015625 0.890625 -0.09375q0.4375 -0.09375 0.765625 -0.296875q0.34375 -0.1875 0.546875 -0.484375q0.203125 -0.296875 0.203125 -0.65625q0 -0.390625 -0.140625 -0.625q-0.125 -0.234375 -0.296875 -0.4375q-0.15625 -0.203125 -0.296875 -0.421875q-0.125 -0.234375 -0.125 -0.625q0 -0.1875 0.0625 -0.390625q0.078125 -0.21875 0.21875 -0.390625q0.15625 -0.171875 0.390625 -0.28125q0.234375 -0.109375 0.5625 -0.109375q0.3125 0 0.609375 0.140625q0.296875 0.125 0.515625 0.40625q0.21875 0.265625 0.34375 0.6875q0.140625 0.40625 0.140625 0.953125q0 0.765625 -0.28125 1.453125q-0.265625 0.703125 -0.828125 1.234375q-0.546875 0.546875 -1.375 0.859375q-0.8125 0.3125 -1.90625 0.3125l0 -1.234375zm26.202087 -6.09375l-5.453125 0l0 -1.5l5.453125 0l0 1.5zm11.851044 -1.734375q0 1.375 -0.28125 2.5q-0.265625 1.125 -0.828125 1.9375q-0.546875 0.796875 -1.375 1.234375q-0.8125 0.4375 -1.9375 0.4375q-0.953125 0 -1.734375 -0.359375q-0.78125 -0.359375 -1.34375 -1.09375q-0.546875 -0.75 -0.859375 -1.90625q-0.296875 -1.15625 -0.296875 -2.75q0 -1.359375 0.28125 -2.484375q0.28125 -1.140625 0.828125 -1.9375q0.546875 -0.8125 1.375 -1.25q0.84375 -0.4375 1.9375 -0.4375q0.953125 0 1.734375 0.359375q0.796875 0.359375 1.34375 1.109375q0.5625 0.75 0.859375 1.90625q0.296875 1.15625 0.296875 2.734375zm-1.59375 0.0625q0 -0.3125 -0.03125 -0.609375q-0.015625 -0.3125 -0.046875 -0.609375l-5.046875 3.75q0.140625 0.46875 0.34375 0.875q0.21875 0.390625 0.515625 0.6875q0.296875 0.28125 0.671875 0.453125q0.375 0.15625 0.859375 0.15625q0.625 0 1.125 -0.296875q0.515625 -0.3125 0.859375 -0.90625q0.359375 -0.59375 0.546875 -1.46875q0.203125 -0.875 0.203125 -2.03125zm-5.453125 -0.109375q0 0.28125 0 0.5625q0 0.28125 0.03125 0.546875l5.046875 -3.734375q-0.140625 -0.453125 -0.359375 -0.828125q-0.203125 -0.390625 -0.5 -0.671875q-0.28125 -0.28125 -0.65625 -0.4375q-0.375 -0.15625 -0.84375 -0.15625q-0.609375 0 -1.125 0.3125q-0.5 0.296875 -0.859375 0.890625q-0.359375 0.59375 -0.546875 1.484375q-0.1875 0.875 -0.1875 2.03125zm12.913513 3.125q0.296875 0 0.578125 0.125q0.28125 0.125 0.484375 0.328125q0.203125 0.203125 0.3125 0.484375q0.125 0.28125 0.125 0.59375q0 0.3125 -0.125 0.59375q-0.109375 0.265625 -0.3125 0.46875q-0.203125 0.203125 -0.484375 0.3125q-0.28125 0.125 -0.578125 0.125q-0.328125 0 -0.609375 -0.125q-0.265625 -0.109375 -0.46875 -0.3125q-0.203125 -0.203125 -0.328125 -0.46875q-0.109375 -0.28125 -0.109375 -0.59375q0 -0.3125 0.109375 -0.59375q0.125 -0.28125 0.328125 -0.484375q0.203125 -0.203125 0.46875 -0.328125q0.28125 -0.125 0.609375 -0.125zm14.272949 2.875l-7.46875 0l0 -1.46875l3.0625 0l0 -8.703125l-2.859375 1.546875l-0.578125 -1.34375l3.78125 -1.984375l1.40625 0l0 10.484375l2.65625 0l0 1.46875zm3.3510132 1.875q0.453125 0.015625 0.890625 -0.09375q0.4375 -0.09375 0.765625 -0.296875q0.34375 -0.1875 0.546875 -0.484375q0.203125 -0.296875 0.203125 -0.65625q0 -0.390625 -0.140625 -0.625q-0.125 -0.234375 -0.296875 -0.4375q-0.15625 -0.203125 -0.296875 -0.421875q-0.125 -0.234375 -0.125 -0.625q0 -0.1875 0.0625 -0.390625q0.078125 -0.21875 0.21875 -0.390625q0.15625 -0.171875 0.390625 -0.28125q0.234375 -0.109375 0.5625 -0.109375q0.3125 0 0.609375 0.140625q0.296875 0.125 0.515625 0.40625q0.21875 0.265625 0.34375 0.6875q0.140625 0.40625 0.140625 0.953125q0 0.765625 -0.28125 1.453125q-0.265625 0.703125 -0.828125 1.234375q-0.546875 0.546875 -1.375 0.859375q-0.8125 0.3125 -1.90625 0.3125l0 -1.234375zm27.795837 -7.828125q0 1.375 -0.28125 2.5q-0.265625 1.125 -0.828125 1.9375q-0.546875 0.796875 -1.375 1.234375q-0.8125 0.4375 -1.9375 0.4375q-0.953125 0 -1.734375 -0.359375q-0.78125 -0.359375 -1.34375 -1.09375q-0.546875 -0.75 -0.859375 -1.90625q-0.296875 -1.15625 -0.296875 -2.75q0 -1.359375 0.28125 -2.484375q0.28125 -1.140625 0.828125 -1.9375q0.546875 -0.8125 1.375 -1.25q0.84375 -0.4375 1.9375 -0.4375q0.953125 0 1.734375 0.359375q0.796875 0.359375 1.34375 1.109375q0.5625 0.75 0.859375 1.90625q0.296875 1.15625 0.296875 2.734375zm-1.59375 0.0625q0 -0.3125 -0.03125 -0.609375q-0.015625 -0.3125 -0.046875 -0.609375l-5.046875 3.75q0.140625 0.46875 0.34375 0.875q0.21875 0.390625 0.515625 0.6875q0.296875 0.28125 0.671875 0.453125q0.375 0.15625 0.859375 0.15625q0.625 0 1.125 -0.296875q0.515625 -0.3125 0.859375 -0.90625q0.359375 -0.59375 0.546875 -1.46875q0.203125 -0.875 0.203125 -2.03125zm-5.453125 -0.109375q0 0.28125 0 0.5625q0 0.28125 0.03125 0.546875l5.046875 -3.734375q-0.140625 -0.453125 -0.359375 -0.828125q-0.203125 -0.390625 -0.5 -0.671875q-0.28125 -0.28125 -0.65625 -0.4375q-0.375 -0.15625 -0.84375 -0.15625q-0.609375 0 -1.125 0.3125q-0.5 0.296875 -0.859375 0.890625q-0.359375 0.59375 -0.546875 1.484375q-0.1875 0.875 -0.1875 2.03125zm12.913574 3.125q0.296875 0 0.578125 0.125q0.28125 0.125 0.484375 0.328125q0.203125 0.203125 0.3125 0.484375q0.125 0.28125 0.125 0.59375q0 0.3125 -0.125 0.59375q-0.109375 0.265625 -0.3125 0.46875q-0.203125 0.203125 -0.484375 0.3125q-0.28125 0.125 -0.578125 0.125q-0.328125 0 -0.609375 -0.125q-0.265625 -0.109375 -0.46875 -0.3125q-0.203125 -0.203125 -0.328125 -0.46875q-0.109375 -0.28125 -0.109375 -0.59375q0 -0.3125 0.109375 -0.59375q0.125 -0.28125 0.328125 -0.484375q0.203125 -0.203125 0.46875 -0.328125q0.28125 -0.125 0.609375 -0.125zm14.382263 2.875l-7.84375 0l0 -1.421875l3.078125 -3.0625q0.75 -0.75 1.21875 -1.296875q0.484375 -0.546875 0.75 -0.984375q0.265625 -0.453125 0.34375 -0.859375q0.09375 -0.40625 0.09375 -0.859375q0 -0.4375 -0.125 -0.828125q-0.109375 -0.40625 -0.359375 -0.703125q-0.234375 -0.3125 -0.640625 -0.484375q-0.390625 -0.171875 -0.9375 -0.171875q-0.75 0 -1.375 0.34375q-0.609375 0.328125 -1.125 0.875l-0.875 -1.046875q0.671875 -0.71875 1.546875 -1.140625q0.875 -0.421875 2.046875 -0.421875q0.796875 0 1.4375 0.234375q0.65625 0.234375 1.125 0.6875q0.484375 0.4375 0.734375 1.09375q0.265625 0.640625 0.265625 1.453125q0 0.671875 -0.1875 1.265625q-0.171875 0.578125 -0.546875 1.15625q-0.375 0.578125 -0.9375 1.203125q-0.546875 0.609375 -1.3125 1.359375l-2.171875 2.09375l5.796875 0l0 1.515625zm8.179199 3.734375l-4.484375 0l0 -1.28125l2.953125 0l0 -14.375l-2.953125 0l0 -1.265625l4.484375 0l0 16.921875z" fill-rule="nonzero"/><path fill="#000000" fill-opacity="0.0" d="m492.59317 60.440945l0 23.68504" fill-rule="evenodd"/><path stroke="#000000" stroke-width="1.0" stroke-linejoin="round" stroke-linecap="butt" d="m492.59317 60.440945l0 17.68504" fill-rule="evenodd"/><path fill="#000000" stroke="#000000" stroke-width="1.0" stroke-linecap="butt" d="m490.94144 78.125984l1.6517334 4.538101l1.6517334 -4.538101z" fill-rule="evenodd"/><path fill="#000000" fill-opacity="0.0" d="m492.59317 134.99475l0 20.566925" fill-rule="evenodd"/><path stroke="#000000" stroke-width="1.0" stroke-linejoin="round" stroke-linecap="butt" d="m492.59317 134.99475l0 14.566925" fill-rule="evenodd"/><path fill="#000000" stroke="#000000" stroke-width="1.0" stroke-linecap="butt" d="m490.94144 149.56168l1.6517334 4.538101l1.6517334 -4.538101z" fill-rule="evenodd"/><path fill="#000000" fill-opacity="0.0" d="m492.59317 196.13649l0 25.165344" fill-rule="evenodd"/><path stroke="#000000" stroke-width="1.0" stroke-linejoin="round" stroke-linecap="butt" d="m492.59317 196.13649l0 19.165344" fill-rule="evenodd"/><path fill="#000000" stroke="#000000" stroke-width="1.0" stroke-linecap="butt" d="m490.94144 215.30183l1.6517334 4.538101l1.6517334 -4.538101z" fill-rule="evenodd"/><path fill="#000000" fill-opacity="0.0" d="m492.59317 272.15485l0 41.984253" fill-rule="evenodd"/><path stroke="#000000" stroke-width="1.0" stroke-linejoin="round" stroke-linecap="butt" d="m492.59317 272.15485l0 35.984253" fill-rule="evenodd"/><path fill="#000000" stroke="#000000" stroke-width="1.0" stroke-linecap="butt" d="m490.94144 308.1391l1.6517334 4.5381165l1.6517334 -4.5381165z" fill-rule="evenodd"/><path fill="#000000" fill-opacity="0.0" d="m0 158.68242l254.58267 0l0 40.566925l-254.58267 0z" fill-rule="evenodd"/><path fill="#000000" d="m27.230377 189.33679l-4.5 0l0 -16.921875l4.5 0l0 1.265625l-2.984375 0l0 14.375l2.984375 0l0 1.28125zm12.069794 -9.6875q0 1.375 -0.28125 2.5q-0.265625 1.125 -0.828125 1.9375q-0.546875 0.796875 -1.375 1.234375q-0.8125 0.4375 -1.9375 0.4375q-0.953125 0 -1.734375 -0.359375q-0.78125 -0.359375 -1.34375 -1.09375q-0.546875 -0.75 -0.859375 -1.90625q-0.296875 -1.15625 -0.296875 -2.75q0 -1.359375 0.28125 -2.484375q0.28125 -1.140625 0.828125 -1.9375q0.546875 -0.8125 1.375 -1.25q0.84375 -0.4375 1.9375 -0.4375q0.953125 0 1.734375 0.359375q0.796875 0.359375 1.34375 1.109375q0.5625 0.75 0.859375 1.90625q0.296875 1.15625 0.296875 2.734375zm-1.59375 0.0625q0 -0.3125 -0.03125 -0.609375q-0.015625 -0.3125 -0.046875 -0.609375l-5.046875 3.75q0.140625 0.46875 0.34375 0.875q0.21875 0.390625 0.515625 0.6875q0.296875 0.28125 0.671875 0.453125q0.375 0.15625 0.859375 0.15625q0.625 0 1.125 -0.296875q0.515625 -0.3125 0.859375 -0.90625q0.359375 -0.59375 0.546875 -1.46875q0.203125 -0.875 0.203125 -2.03125zm-5.453125 -0.109375q0 0.28125 0 0.5625q0 0.28125 0.03125 0.546875l5.046875 -3.734375q-0.140625 -0.453125 -0.359375 -0.828125q-0.203125 -0.390625 -0.5 -0.671875q-0.28125 -0.28125 -0.65625 -0.4375q-0.375 -0.15625 -0.84375 -0.15625q-0.609375 0 -1.125 0.3125q-0.5 0.296875 -0.859375 0.890625q-0.359375 0.59375 -0.546875 1.484375q-0.1875 0.875 -0.1875 2.03125zm12.913544 3.125q0.296875 0 0.578125 0.125q0.28125 0.125 0.484375 0.328125q0.203125 0.203125 0.3125 0.484375q0.125 0.28125 0.125 0.59375q0 0.3125 -0.125 0.59375q-0.109375 0.265625 -0.3125 0.46875q-0.203125 0.203125 -0.484375 0.3125q-0.28125 0.125 -0.578125 0.125q-0.328125 0 -0.609375 -0.125q-0.265625 -0.109375 -0.46875 -0.3125q-0.203125 -0.203125 -0.328125 -0.46875q-0.109375 -0.28125 -0.109375 -0.59375q0 -0.3125 0.109375 -0.59375q0.125 -0.28125 0.328125 -0.484375q0.203125 -0.203125 0.46875 -0.328125q0.28125 -0.125 0.609375 -0.125zm14.272919 2.875l-7.46875 0l0 -1.46875l3.0625 0l0 -8.703125l-2.859375 1.546875l-0.578125 -1.34375l3.78125 -1.984375l1.40625 0l0 10.484375l2.65625 0l0 1.46875zm3.3510437 1.875q0.453125 0.015625 0.890625 -0.09375q0.4375 -0.09375 0.765625 -0.296875q0.34375 -0.1875 0.546875 -0.484375q0.203125 -0.296875 0.203125 -0.65625q0 -0.390625 -0.140625 -0.625q-0.125 -0.234375 -0.296875 -0.4375q-0.15625 -0.203125 -0.296875 -0.421875q-0.125 -0.234375 -0.125 -0.625q0 -0.1875 0.0625 -0.390625q0.078125 -0.21875 0.21875 -0.390625q0.15625 -0.171875 0.390625 -0.28125q0.234375 -0.109375 0.5625 -0.109375q0.3125 0 0.609375 0.140625q0.296875 0.125 0.515625 0.40625q0.21875 0.265625 0.34375 0.6875q0.140625 0.40625 0.140625 0.953125q0 0.765625 -0.28125 1.453125q-0.265625 0.703125 -0.828125 1.234375q-0.546875 0.546875 -1.375 0.859375q-0.8125 0.3125 -1.90625 0.3125l0 -1.234375zm27.795837 -7.828125q0 1.375 -0.28125 2.5q-0.265625 1.125 -0.828125 1.9375q-0.546875 0.796875 -1.375 1.234375q-0.8125 0.4375 -1.9375 0.4375q-0.953125 0 -1.734375 -0.359375q-0.78125 -0.359375 -1.34375 -1.09375q-0.546875 -0.75 -0.859375 -1.90625q-0.296875 -1.15625 -0.296875 -2.75q0 -1.359375 0.28125 -2.484375q0.28125 -1.140625 0.828125 -1.9375q0.546875 -0.8125 1.375 -1.25q0.84375 -0.4375 1.9375 -0.4375q0.953125 0 1.734375 0.359375q0.796875 0.359375 1.34375 1.109375q0.5625 0.75 0.859375 1.90625q0.296875 1.15625 0.296875 2.734375zm-1.59375 0.0625q0 -0.3125 -0.03125 -0.609375q-0.015625 -0.3125 -0.046875 -0.609375l-5.046875 3.75q0.140625 0.46875 0.34375 0.875q0.21875 0.390625 0.515625 0.6875q0.296875 0.28125 0.671875 0.453125q0.375 0.15625 0.859375 0.15625q0.625 0 1.125 -0.296875q0.515625 -0.3125 0.859375 -0.90625q0.359375 -0.59375 0.546875 -1.46875q0.203125 -0.875 0.203125 -2.03125zm-5.453125 -0.109375q0 0.28125 0 0.5625q0 0.28125 0.03125 0.546875l5.046875 -3.734375q-0.140625 -0.453125 -0.359375 -0.828125q-0.203125 -0.390625 -0.5 -0.671875q-0.28125 -0.28125 -0.65625 -0.4375q-0.375 -0.15625 -0.84375 -0.15625q-0.609375 0 -1.125 0.3125q-0.5 0.296875 -0.859375 0.890625q-0.359375 0.59375 -0.546875 1.484375q-0.1875 0.875 -0.1875 2.03125zm12.913544 3.125q0.296875 0 0.578125 0.125q0.28125 0.125 0.484375 0.328125q0.203125 0.203125 0.3125 0.484375q0.125 0.28125 0.125 0.59375q0 0.3125 -0.125 0.59375q-0.109375 0.265625 -0.3125 0.46875q-0.203125 0.203125 -0.484375 0.3125q-0.28125 0.125 -0.578125 0.125q-0.328125 0 -0.609375 -0.125q-0.265625 -0.109375 -0.46875 -0.3125q-0.203125 -0.203125 -0.328125 -0.46875q-0.109375 -0.28125 -0.109375 -0.59375q0 -0.3125 0.109375 -0.59375q0.125 -0.28125 0.328125 -0.484375q0.203125 -0.203125 0.46875 -0.328125q0.28125 -0.125 0.609375 -0.125zm14.069794 -0.9375q0 0.890625 -0.390625 1.625q-0.375 0.71875 -1.046875 1.25q-0.65625 0.515625 -1.578125 0.8125q-0.90625 0.28125 -1.953125 0.28125q-0.265625 0 -0.578125 -0.015625q-0.296875 0 -0.609375 -0.03125q-0.296875 -0.015625 -0.59375 -0.046875q-0.28125 -0.03125 -0.5 -0.0625l0 -1.4375q0.484375 0.109375 1.109375 0.171875q0.640625 0.046875 1.296875 0.046875q0.71875 0 1.296875 -0.171875q0.59375 -0.171875 1.0 -0.484375q0.40625 -0.328125 0.625 -0.78125q0.21875 -0.46875 0.21875 -1.046875q0 -1.109375 -0.796875 -1.609375q-0.796875 -0.515625 -2.28125 -0.515625l-2.265625 0l0 -6.078125l6.421875 0l0 1.390625l-4.921875 0l0 3.34375l1.03125 0q0.859375 0 1.671875 0.15625q0.8125 0.140625 1.4375 0.53125q0.640625 0.390625 1.015625 1.046875q0.390625 0.640625 0.390625 1.625zm3.5541687 5.6875q0.453125 0.015625 0.890625 -0.09375q0.4375 -0.09375 0.765625 -0.296875q0.34375 -0.1875 0.546875 -0.484375q0.203125 -0.296875 0.203125 -0.65625q0 -0.390625 -0.140625 -0.625q-0.125 -0.234375 -0.296875 -0.4375q-0.15625 -0.203125 -0.296875 -0.421875q-0.125 -0.234375 -0.125 -0.625q0 -0.1875 0.0625 -0.390625q0.078125 -0.21875 0.21875 -0.390625q0.15625 -0.171875 0.390625 -0.28125q0.234375 -0.109375 0.5625 -0.109375q0.3125 0 0.609375 0.140625q0.296875 0.125 0.515625 0.40625q0.21875 0.265625 0.34375 0.6875q0.140625 0.40625 0.140625 0.953125q0 0.765625 -0.28125 1.453125q-0.265625 0.703125 -0.828125 1.234375q-0.546875 0.546875 -1.375 0.859375q-0.8125 0.3125 -1.90625 0.3125l0 -1.234375zm26.202087 -6.09375l-5.453125 0l0 -1.5l5.453125 0l0 1.5zm11.851044 -1.734375q0 1.375 -0.28125 2.5q-0.265625 1.125 -0.828125 1.9375q-0.546875 0.796875 -1.375 1.234375q-0.8125 0.4375 -1.9375 0.4375q-0.953125 0 -1.734375 -0.359375q-0.78125 -0.359375 -1.34375 -1.09375q-0.546875 -0.75 -0.859375 -1.90625q-0.296875 -1.15625 -0.296875 -2.75q0 -1.359375 0.28125 -2.484375q0.28125 -1.140625 0.828125 -1.9375q0.546875 -0.8125 1.375 -1.25q0.84375 -0.4375 1.9375 -0.4375q0.953125 0 1.734375 0.359375q0.796875 0.359375 1.34375 1.109375q0.5625 0.75 0.859375 1.90625q0.296875 1.15625 0.296875 2.734375zm-1.59375 0.0625q0 -0.3125 -0.03125 -0.609375q-0.015625 -0.3125 -0.046875 -0.609375l-5.046875 3.75q0.140625 0.46875 0.34375 0.875q0.21875 0.390625 0.515625 0.6875q0.296875 0.28125 0.671875 0.453125q0.375 0.15625 0.859375 0.15625q0.625 0 1.125 -0.296875q0.515625 -0.3125 0.859375 -0.90625q0.359375 -0.59375 0.546875 -1.46875q0.203125 -0.875 0.203125 -2.03125zm-5.453125 -0.109375q0 0.28125 0 0.5625q0 0.28125 0.03125 0.546875l5.046875 -3.734375q-0.140625 -0.453125 -0.359375 -0.828125q-0.203125 -0.390625 -0.5 -0.671875q-0.28125 -0.28125 -0.65625 -0.4375q-0.375 -0.15625 -0.84375 -0.15625q-0.609375 0 -1.125 0.3125q-0.5 0.296875 -0.859375 0.890625q-0.359375 0.59375 -0.546875 1.484375q-0.1875 0.875 -0.1875 2.03125zm12.913544 3.125q0.296875 0 0.578125 0.125q0.28125 0.125 0.484375 0.328125q0.203125 0.203125 0.3125 0.484375q0.125 0.28125 0.125 0.59375q0 0.3125 -0.125 0.59375q-0.109375 0.265625 -0.3125 0.46875q-0.203125 0.203125 -0.484375 0.3125q-0.28125 0.125 -0.578125 0.125q-0.328125 0 -0.609375 -0.125q-0.265625 -0.109375 -0.46875 -0.3125q-0.203125 -0.203125 -0.328125 -0.46875q-0.109375 -0.28125 -0.109375 -0.59375q0 -0.3125 0.109375 -0.59375q0.125 -0.28125 0.328125 -0.484375q0.203125 -0.203125 0.46875 -0.328125q0.28125 -0.125 0.609375 -0.125zm14.319794 -7.5625l-5.0 10.4375l-1.8125 0l5.1875 -10.4375l-6.4375 0l0 -1.46875l8.0625 0l0 1.46875zm3.3041687 12.3125q0.453125 0.015625 0.890625 -0.09375q0.4375 -0.09375 0.765625 -0.296875q0.34375 -0.1875 0.546875 -0.484375q0.203125 -0.296875 0.203125 -0.65625q0 -0.390625 -0.140625 -0.625q-0.125 -0.234375 -0.296875 -0.4375q-0.15625 -0.203125 -0.296875 -0.421875q-0.125 -0.234375 -0.125 -0.625q0 -0.1875 0.0625 -0.390625q0.078125 -0.21875 0.21875 -0.390625q0.15625 -0.171875 0.390625 -0.28125q0.234375 -0.109375 0.5625 -0.109375q0.3125 0 0.609375 0.140625q0.296875 0.125 0.515625 0.40625q0.21875 0.265625 0.34375 0.6875q0.140625 0.40625 0.140625 0.953125q0 0.765625 -0.28125 1.453125q-0.265625 0.703125 -0.828125 1.234375q-0.546875 0.546875 -1.375 0.859375q-0.8125 0.3125 -1.90625 0.3125l0 -1.234375zm27.795837 -7.828125q0 1.375 -0.28125 2.5q-0.265625 1.125 -0.828125 1.9375q-0.546875 0.796875 -1.375 1.234375q-0.8125 0.4375 -1.9375 0.4375q-0.953125 0 -1.734375 -0.359375q-0.78125 -0.359375 -1.34375 -1.09375q-0.546875 -0.75 -0.859375 -1.90625q-0.296875 -1.15625 -0.296875 -2.75q0 -1.359375 0.28125 -2.484375q0.28125 -1.140625 0.828125 -1.9375q0.546875 -0.8125 1.375 -1.25q0.84375 -0.4375 1.9375 -0.4375q0.953125 0 1.734375 0.359375q0.796875 0.359375 1.34375 1.109375q0.5625 0.75 0.859375 1.90625q0.296875 1.15625 0.296875 2.734375zm-1.59375 0.0625q0 -0.3125 -0.03125 -0.609375q-0.015625 -0.3125 -0.046875 -0.609375l-5.046875 3.75q0.140625 0.46875 0.34375 0.875q0.21875 0.390625 0.515625 0.6875q0.296875 0.28125 0.671875 0.453125q0.375 0.15625 0.859375 0.15625q0.625 0 1.125 -0.296875q0.515625 -0.3125 0.859375 -0.90625q0.359375 -0.59375 0.546875 -1.46875q0.203125 -0.875 0.203125 -2.03125zm-5.453125 -0.109375q0 0.28125 0 0.5625q0 0.28125 0.03125 0.546875l5.046875 -3.734375q-0.140625 -0.453125 -0.359375 -0.828125q-0.203125 -0.390625 -0.5 -0.671875q-0.28125 -0.28125 -0.65625 -0.4375q-0.375 -0.15625 -0.84375 -0.15625q-0.609375 0 -1.125 0.3125q-0.5 0.296875 -0.859375 0.890625q-0.359375 0.59375 -0.546875 1.484375q-0.1875 0.875 -0.1875 2.03125zm12.913544 3.125q0.296875 0 0.578125 0.125q0.28125 0.125 0.484375 0.328125q0.203125 0.203125 0.3125 0.484375q0.125 0.28125 0.125 0.59375q0 0.3125 -0.125 0.59375q-0.109375 0.265625 -0.3125 0.46875q-0.203125 0.203125 -0.484375 0.3125q-0.28125 0.125 -0.578125 0.125q-0.328125 0 -0.609375 -0.125q-0.265625 -0.109375 -0.46875 -0.3125q-0.203125 -0.203125 -0.328125 -0.46875q-0.109375 -0.28125 -0.109375 -0.59375q0 -0.3125 0.109375 -0.59375q0.125 -0.28125 0.328125 -0.484375q0.203125 -0.203125 0.46875 -0.328125q0.28125 -0.125 0.609375 -0.125zm14.319794 -3.75q0 1.75 -0.421875 3.0q-0.421875 1.25 -1.25 2.0625q-0.8125 0.796875 -2.03125 1.1875q-1.203125 0.375 -2.796875 0.375l-0.984375 0l0 -1.390625l1.09375 0q1.1875 0 2.03125 -0.234375q0.859375 -0.234375 1.421875 -0.6875q0.578125 -0.46875 0.875 -1.125q0.3125 -0.65625 0.375 -1.515625l0.046875 -0.359375q-0.578125 0.328125 -1.328125 0.53125q-0.75 0.203125 -1.625 0.203125q-0.890625 0 -1.578125 -0.25q-0.6875 -0.265625 -1.140625 -0.734375q-0.453125 -0.484375 -0.6875 -1.125q-0.21875 -0.65625 -0.21875 -1.421875q0 -0.84375 0.296875 -1.5625q0.3125 -0.71875 0.84375 -1.25q0.546875 -0.53125 1.296875 -0.828125q0.765625 -0.3125 1.671875 -0.3125q0.890625 0 1.640625 0.296875q0.75 0.28125 1.296875 0.9375q0.546875 0.640625 0.859375 1.6875q0.3125 1.03125 0.3125 2.515625zm-4.171875 -4.140625q-0.515625 0 -0.953125 0.171875q-0.421875 0.15625 -0.75 0.484375q-0.3125 0.328125 -0.5 0.796875q-0.171875 0.46875 -0.171875 1.09375q0 0.546875 0.125 0.984375q0.140625 0.4375 0.40625 0.75q0.28125 0.296875 0.71875 0.46875q0.4375 0.15625 1.046875 0.15625q0.328125 0 0.6875 -0.0625q0.375 -0.0625 0.703125 -0.171875q0.34375 -0.109375 0.65625 -0.25q0.3125 -0.15625 0.5625 -0.3125q0 -1.171875 -0.1875 -1.953125q-0.171875 -0.796875 -0.5 -1.265625q-0.3125 -0.484375 -0.796875 -0.6875q-0.46875 -0.203125 -1.046875 -0.203125zm12.413544 14.5l-4.484375 0l0 -1.28125l2.953125 0l0 -14.375l-2.953125 0l0 -1.265625l4.484375 0l0 16.921875z" fill-rule="nonzero"/><path fill="#000000" fill-opacity="0.0" d="m127.291336 134.99475l0 23.685043" fill-rule="evenodd"/><path stroke="#000000" stroke-width="1.0" stroke-linejoin="round" stroke-linecap="butt" d="m127.291336 134.99475l0 17.685043" fill-rule="evenodd"/><path fill="#000000" stroke="#000000" stroke-width="1.0" stroke-linecap="butt" d="m125.6396 152.6798l1.6517334 4.538086l1.6517334 -4.538086z" fill-rule="evenodd"/><path fill="#000000" fill-opacity="0.0" d="m127.291336 199.24934c0 78.66142 165.29134 157.32283 330.5827 157.32283" fill-rule="evenodd"/><path stroke="#000000" stroke-width="1.0" stroke-linejoin="round" stroke-linecap="butt" d="m127.291336 199.24934c0 39.330704 41.32283 78.66142 103.30708 108.15944c30.992126 14.749023 67.1496 27.039886 105.88977 35.643463c19.370087 4.3017883 39.385834 7.6817627 59.724396 9.986298c10.169312 1.1522827 20.419312 2.035675 30.709656 2.6310425c5.145172 0.29763794 10.300446 0.5232849 15.460754 0.67453c2.5801697 0.07562256 5.1615906 0.1326294 7.7435913 0.17071533l1.7474976 0.022613525" fill-rule="evenodd"/><path fill="#000000" stroke="#000000" stroke-width="1.0" stroke-linecap="butt" d="m451.86456 358.18915l4.547577 -1.6254272l-4.528473 -1.6779785z" fill-rule="evenodd"/><path fill="#000000" fill-opacity="0.0" d="m121.15748 325.56955l225.00787 0l0 50.86615l-225.00787 0z" fill-rule="evenodd"/><path fill="#000000" d="m138.62624 352.0158l0 0.53125q0 2.40625 -0.421875 3.375q-0.875 1.828125 -3.671875 1.859375l-3.484375 -0.484375l0 -1.34375l3.5 0.234375q1.640625 0 2.09375 -0.71875q0.15625 -0.28125 0.25 -0.453125q0.109375 -0.1875 0.140625 -0.609375q0.03125 -0.4375 0.046875 -0.640625q0.015625 -0.21875 0 -0.734375q-0.015625 -0.53125 -0.015625 -0.71875q0 -1.1875 -2.109375 -3.0q-0.859375 -0.75 -1.75 -1.53125q-0.890625 -0.796875 -1.5 -1.78125q-0.609375 -0.984375 -0.609375 -1.828125q0 -0.859375 0 -1.15625q0.015625 -0.3125 0.078125 -0.84375q0.0625 -0.546875 0.203125 -0.765625q0.15625 -0.234375 0.421875 -0.5625q0.28125 -0.34375 0.71875 -0.46875q1.171875 -0.328125 2.46875 -0.328125l2.546875 0.46875q0 0.921875 -0.484375 0.984375q-0.1875 0.03125 -0.578125 0l-1.34375 -0.140625q-1.734375 0 -2.140625 0.75q-0.234375 0.375 -0.296875 0.734375q-0.0625 0.359375 -0.0625 1.03125q0 0.65625 0.4375 1.34375q0.453125 0.671875 1.125 1.25q0.671875 0.5625 1.4375 1.234375q0.765625 0.671875 1.4375 1.28125q0.671875 0.609375 1.109375 1.421875q0.453125 0.796875 0.453125 1.609375zm8.258972 5.359375q-1.84375 0.40625 -2.578125 0.40625q-0.734375 0 -1.140625 -0.046875q-0.390625 -0.03125 -0.71875 -0.1875q-0.3125 -0.15625 -0.5625 -0.265625q-0.234375 -0.109375 -0.421875 -0.421875q-0.1875 -0.328125 -0.3125 -0.53125q-0.125 -0.203125 -0.203125 -0.703125q-0.0625 -0.515625 -0.109375 -0.828125q-0.046875 -0.3125 -0.078125 -1.015625q-0.015625 -0.703125 -0.015625 -1.140625l0 -2.71875q0 -1.578125 0.0625 -2.046875q0.078125 -0.46875 0.140625 -0.984375q0.078125 -0.53125 0.203125 -0.765625q0.125 -0.234375 0.3125 -0.5625q0.1875 -0.34375 0.421875 -0.46875q0.25 -0.125 0.5625 -0.28125q0.328125 -0.15625 0.71875 -0.203125q0.40625 -0.0625 0.90625 -0.0625q0.515625 0 0.921875 0.078125q0.40625 0.078125 0.671875 0.296875q0.28125 0.203125 0.484375 0.40625q0.203125 0.1875 0.328125 0.625q0.140625 0.421875 0.203125 0.734375q0.078125 0.296875 0.109375 0.9375q0.046875 0.625 0.046875 1.015625l0 1.234375l0.09375 1.296875l-4.890625 0.125l0.09375 0.59375q0 3.078125 0.234375 3.5625q0.390625 0.78125 0.890625 0.90625q0.34375 0.09375 1.3125 0.09375q0.96875 0 2.3125 -0.3125l0 1.234375zm-4.609375 -9.265625q0 0.421875 0 1.296875l-0.09375 0.59375l3.40625 0l-0.125 -0.625q0 -1.921875 -0.265625 -2.734375q-0.25 -0.8125 -1.1875 -0.8125q-0.921875 0 -1.3125 0.5q-0.375 0.484375 -0.421875 1.78125zm11.25322 0.453125l0 -1.34375q0 -0.96875 -0.234375 -1.21875q-0.21875 -0.25 -1.078125 -0.25l-1.203125 0.25q-0.234375 0.046875 -0.359375 0.046875q-0.84375 0 -0.84375 -1.078125l2.40625 -0.421875q1.796875 0 2.1875 0.484375q0.1875 0.234375 0.296875 0.40625q0.109375 0.171875 0.125 0.609375q0.078125 0.6875 0.078125 1.609375l0 9.953125q-1.078125 0 -1.28125 -0.15625q-0.1875 -0.15625 -0.1875 -1.046875q-0.234375 0.140625 -0.671875 0.53125q-0.90625 0.84375 -1.53125 0.84375q-1.46875 0 -1.75 -0.921875q-0.265625 -0.9375 -0.265625 -5.125q0 -1.609375 1.390625 -2.140625q1.15625 -0.4375 2.921875 -0.4375l0.09375 0l-0.09375 -0.59375zm-0.09375 1.9375q-1.390625 0 -2.109375 0.203125q-0.703125 0.203125 -0.703125 0.828125q0 4.390625 0.203125 4.8125q0.09375 0.15625 0.421875 0.15625q0.34375 0 0.734375 -0.1875q0.40625 -0.1875 0.84375 -0.515625q0.4375 -0.328125 0.703125 -0.4375l-0.09375 -0.609375l0 -3.640625l0.09375 -0.609375l-0.09375 0zm4.2236023 6.0l0 -11.78125q1.0625 0 1.234375 0.09375q0.1875 0.078125 0.1875 0.625l0 0.265625l1.921875 -1.15625q0.40625 0 1.1875 0.171875q0 0.84375 -0.15625 0.984375q-0.15625 0.125 -1.03125 0.125l-2.046875 1.125l0.125 0.59375l0 10.0625q-1.0625 0 -1.25 -0.140625q-0.171875 -0.140625 -0.171875 -0.96875zm6.2216034 -5.328125l0 -1.53125q0 -1.75 0.078125 -2.203125q0.09375 -0.453125 0.1875 -0.984375q0.109375 -0.53125 0.265625 -0.734375q0.15625 -0.203125 0.390625 -0.484375q0.234375 -0.296875 0.5625 -0.390625q0.8125 -0.296875 1.65625 -0.296875l2.0 0.3125q0 1.0625 -0.875 1.0625q-0.171875 0 -0.328125 -0.03125l-0.796875 -0.0625q-1.21875 0 -1.484375 1.015625q-0.265625 1.015625 -0.265625 3.515625q0 2.5 0.015625 3.25q0.03125 0.734375 0.1875 1.5625q0.171875 0.828125 0.53125 1.078125q0.375 0.25 1.015625 0.25l2.09375 -0.234375l0 1.109375l-2.09375 0.40625q-1.296875 0 -1.734375 -0.3125q-0.421875 -0.3125 -0.640625 -0.515625q-0.21875 -0.203125 -0.375 -0.734375q-0.15625 -0.53125 -0.234375 -0.890625q-0.0625 -0.359375 -0.109375 -1.171875q-0.046875 -1.390625 -0.046875 -2.984375zm12.698853 5.328125l0 -5.296875q0 -3.078125 -0.25 -4.21875q-0.234375 -1.15625 -1.265625 -1.15625l-2.359375 0.84375l0.09375 0.59375l0 9.234375q0 0.828125 -0.1875 0.96875q-0.171875 0.140625 -1.21875 0.140625l0 -17.5625q1.03125 0 1.203125 0.140625q0.1875 0.140625 0.1875 0.953125l0 4.296875l2.28125 -0.890625q2.03125 0 2.46875 1.328125q0.453125 1.3125 0.453125 5.34375l0 6.390625q-1.046875 0 -1.234375 -0.140625q-0.171875 -0.140625 -0.171875 -0.96875zm5.948715 -14.3125q-0.3125 0.328125 -0.78125 0.328125q-0.453125 0 -0.78125 -0.328125q-0.3125 -0.328125 -0.3125 -0.796875q0 -0.46875 0.3125 -0.765625q0.328125 -0.296875 0.78125 -0.296875q0.46875 0 0.78125 0.3125q0.328125 0.3125 0.328125 0.765625q0 0.453125 -0.328125 0.78125zm-1.46875 14.40625l0 -11.875q1.0625 0 1.234375 0.140625q0.1875 0.125 0.1875 0.96875l0 11.875q-1.0625 0 -1.25 -0.140625q-0.171875 -0.140625 -0.171875 -0.96875zm9.746979 -0.09375l0 -5.296875q0 -3.671875 -0.21875 -4.515625q-0.21875 -0.859375 -1.296875 -0.859375l-2.34375 0.84375l0.09375 0.59375l0 10.34375q-1.0625 0 -1.25 -0.140625q-0.171875 -0.140625 -0.171875 -0.96875l0 -11.78125q1.0625 0 1.234375 0.09375q0.1875 0.078125 0.1875 0.625l2.15625 -0.890625q2.15625 0 2.59375 1.109375q0.4375 1.109375 0.4375 5.5625l0 6.390625q-1.0625 0 -1.25 -0.140625q-0.171875 -0.140625 -0.171875 -0.96875zm7.70372 5.90625l-1.078125 0q-0.890625 0 -1.046875 -0.140625q-0.15625 -0.140625 -0.15625 -0.984375l2.28125 -0.171875q1.3125 0 1.65625 -0.46875q0.171875 -0.296875 0.203125 -0.578125q0.03125 -0.265625 0.03125 -0.75q0 -0.484375 -0.03125 -0.703125q-0.03125 -0.203125 -0.203125 -0.421875q-0.28125 -0.40625 -1.578125 -0.40625q-2.84375 0 -3.34375 -0.265625q-0.484375 -0.265625 -0.484375 -1.609375q0 -1.34375 0.296875 -1.875q0.3125 -0.546875 0.9375 -0.84375q-0.703125 -0.5 -0.96875 -1.203125q-0.265625 -0.71875 -0.265625 -2.203125q0 -1.484375 0.03125 -2.0625q0.046875 -0.578125 0.15625 -1.171875q0.125 -0.59375 0.34375 -0.90625q0.234375 -0.3125 0.625 -0.609375q0.703125 -0.484375 2.375 -0.484375l3.71875 0q0 0.890625 -0.15625 1.046875q-0.15625 0.15625 -1.0625 0.15625q0.375 0.71875 0.453125 1.34375q0.078125 0.625 0.078125 2.53125q0 1.890625 -0.078125 2.484375q-0.078125 0.578125 -0.375 1.109375q-0.296875 0.53125 -0.90625 0.734375q-0.609375 0.203125 -1.4375 0.203125q-0.8125 0 -1.15625 0.015625q-0.328125 0 -0.59375 0.078125q-0.265625 0.078125 -0.390625 0.140625q-0.109375 0.046875 -0.1875 0.265625q-0.0625 0.21875 -0.0625 0.359375l0 0.75q0 0.46875 0.359375 0.578125q0.359375 0.09375 2.234375 0.09375q1.875 0 2.453125 0.484375q0.59375 0.46875 0.59375 2.296875q0 1.84375 -0.609375 2.515625q-0.59375 0.671875 -2.65625 0.671875zm-2.328125 -13.265625q0 2.109375 0.390625 2.921875q0.40625 0.8125 1.640625 0.8125q1.25 0 1.515625 -0.59375q0.265625 -0.59375 0.265625 -2.796875q0 -2.21875 -0.1875 -2.765625q-0.3125 -0.890625 -1.609375 -0.890625q-1.296875 0 -1.65625 0.609375q-0.359375 0.59375 -0.359375 2.703125zm11.908829 -3.125l0 -1.296875l1.296875 0l-0.125 -0.71875l0 -0.265625q0 -2.015625 0.15625 -2.328125q0.171875 -0.3125 0.359375 -0.578125q0.203125 -0.265625 0.484375 -0.359375q0.296875 -0.109375 0.734375 -0.234375q0.71875 -0.171875 2.296875 -0.171875l0 1.125q-1.875 0 -2.25 0.375q-0.359375 0.375 -0.359375 2.171875l0 0.265625l-0.125 0.71875l2.15625 0l0 1.296875l-2.1875 0l0.125 0.71875l0 14.3125q-0.03125 1.03125 -0.203125 1.1875q-0.15625 0.171875 -1.21875 0.171875l0.03125 -15.671875l0.125 -0.71875l-1.296875 0zm11.309616 11.484375q-0.328125 0.109375 -0.75 0.1875q-0.40625 0.09375 -1.0 0.09375q-0.59375 0 -1.0625 -0.078125q-0.46875 -0.0625 -0.8125 -0.296875q-0.34375 -0.25 -0.578125 -0.453125q-0.21875 -0.203125 -0.375 -0.734375q-0.15625 -0.53125 -0.25 -0.890625q-0.078125 -0.359375 -0.125 -1.1875q-0.03125 -0.828125 -0.046875 -1.359375q0 -0.53125 0 -1.671875q0 -1.15625 0 -1.671875q0.015625 -0.515625 0.046875 -1.34375q0.046875 -0.828125 0.125 -1.171875q0.09375 -0.359375 0.25 -0.875q0.15625 -0.515625 0.375 -0.703125q0.234375 -0.1875 0.59375 -0.40625q0.546875 -0.390625 1.5 -0.390625q0.953125 0 1.359375 0.09375q0.421875 0.078125 0.75 0.171875q0.34375 0.09375 0.578125 0.40625q0.25 0.296875 0.421875 0.5q0.171875 0.203125 0.265625 0.71875q0.09375 0.515625 0.15625 0.84375q0.0625 0.3125 0.09375 1.09375q0.03125 0.765625 0.03125 1.25l0 1.484375q0 0 0 0.09375q0 0 0 1.46875q0 1.625 -0.09375 2.140625q-0.09375 0.515625 -0.1875 1.046875q-0.09375 0.53125 -0.265625 0.734375q-0.171875 0.203125 -0.421875 0.5q-0.234375 0.296875 -0.578125 0.40625zm0.140625 -5.84375l0 -0.8125q0 -3.140625 -0.265625 -3.96875q-0.390625 -1.03125 -1.59375 -1.046875q-0.984375 0 -1.3125 0.5q-0.203125 0.34375 -0.328125 0.625q-0.109375 0.28125 -0.15625 1.015625q-0.078125 1.046875 -0.078125 2.03125q0 0.984375 0 1.984375q0 1.0 0.015625 1.71875q0.03125 0.71875 0.21875 1.53125q0.1875 0.796875 0.5625 1.03125q0.390625 0.234375 0.953125 0.234375q0.578125 0 0.890625 -0.09375q0.3125 -0.109375 0.515625 -0.40625q0.203125 -0.3125 0.3125 -0.609375q0.109375 -0.296875 0.15625 -0.953125q0.109375 -0.9375 0.109375 -2.78125zm4.0697174 4.84375l0 -11.78125q1.0625 0 1.234375 0.09375q0.1875 0.078125 0.1875 0.625l0 0.265625l1.921875 -1.15625q0.40625 0 1.1875 0.171875q0 0.84375 -0.15625 0.984375q-0.15625 0.125 -1.03125 0.125l-2.046875 1.125l0.125 0.59375l0 10.0625q-1.0625 0 -1.25 -0.140625q-0.171875 -0.140625 -0.171875 -0.96875zm15.594086 0.484375q-0.28125 0.359375 -0.765625 0.546875q-0.46875 0.171875 -1.171875 0.171875q-0.6875 0 -2.859375 -0.359375l0 -1.265625q0.09375 0 1.203125 0.125q1.125 0.109375 1.6875 0.109375q1.34375 0 1.34375 -2.5q0 -0.15625 0 -0.328125q-0.03125 -0.765625 -1.5 -1.875q-1.453125 -1.125 -2.15625 -1.96875q-0.6875 -0.84375 -0.6875 -1.703125q0 -0.859375 0.015625 -1.1875q0.03125 -0.34375 0.171875 -0.84375q0.140625 -0.515625 0.4375 -0.734375q0.734375 -0.59375 2.25 -0.59375l2.28125 0.328125q0 1.0625 -0.859375 1.0625q-0.171875 0 -0.34375 -0.015625l-0.984375 -0.15625q-1.171875 0 -1.4375 0.53125q-0.21875 0.453125 -0.21875 1.328125q0 0.875 1.875 2.375q0.859375 0.640625 1.296875 1.03125q0.453125 0.375 0.875 1.0q0.421875 0.625 0.421875 1.21875q0 0.578125 -0.03125 1.0q-0.015625 0.421875 -0.109375 1.0q-0.078125 0.578125 -0.265625 0.96875q-0.171875 0.375 -0.46875 0.734375zm4.619095 -14.796875q-0.3125 0.328125 -0.78125 0.328125q-0.453125 0 -0.78125 -0.328125q-0.3125 -0.328125 -0.3125 -0.796875q0 -0.46875 0.3125 -0.765625q0.328125 -0.296875 0.78125 -0.296875q0.46875 0 0.78125 0.3125q0.328125 0.3125 0.328125 0.765625q0 0.453125 -0.328125 0.78125zm-1.46875 14.40625l0 -11.875q1.0625 0 1.234375 0.140625q0.1875 0.125 0.1875 0.96875l0 11.875q-1.0625 0 -1.25 -0.140625q-0.171875 -0.140625 -0.171875 -0.96875zm14.8407135 -0.09375l0 -5.296875q0 0 0 -0.1875q0 -3.5625 -0.21875 -4.375q-0.21875 -0.8125 -1.3749847 -0.8125l-2.234375 0.734375l0.09375 0.609375l0 10.4375q-1.03125 0 -1.21875 -0.140625q-0.171875 -0.140625 -0.171875 -0.96875l-0.015625 -5.296875q0 -0.09375 0 -0.65625q0 -0.5625 0 -0.96875q0 -0.421875 -0.015625 -0.78125q-0.015625 -0.375 -0.046875 -1.0q-0.03125 -0.625 -0.140625 -0.890625q-0.09375 -0.265625 -0.25 -0.578125q-0.296875 -0.5 -1.109375 -0.5l-2.25 0.84375l0.09375 0.59375l0 10.34375q-1.0625 0 -1.25 -0.140625q-0.171875 -0.140625 -0.171875 -0.96875l0 -11.78125q1.0625 0 1.234375 0.09375q0.1875 0.078125 0.1875 0.625l2.15625 -0.890625q1.734375 0 2.546875 1.015625l2.5625 -1.015625q2.1874847 0 2.6093597 1.03125q0.421875 1.015625 0.421875 5.640625l0 6.390625q-1.078125 0 -1.265625 -0.140625q-0.171875 -0.140625 -0.171875 -0.96875zm5.9719543 -14.3125q-0.3125 0.328125 -0.78125 0.328125q-0.453125 0 -0.78125 -0.328125q-0.3125 -0.328125 -0.3125 -0.796875q0 -0.46875 0.3125 -0.765625q0.328125 -0.296875 0.78125 -0.296875q0.46875 0 0.78125 0.3125q0.328125 0.3125 0.328125 0.765625q0 0.453125 -0.328125 0.78125zm-1.46875 14.40625l0 -11.875q1.0625 0 1.234375 0.140625q0.1875 0.125 0.1875 0.96875l0 11.875q-1.0625 0 -1.25 -0.140625q-0.171875 -0.140625 -0.171875 -0.96875zm4.6844788 0l0 -16.546875q1.046875 0 1.21875 0.140625q0.1875 0.140625 0.1875 0.953125l0 16.5625q-1.046875 0 -1.234375 -0.140625q-0.171875 -0.140625 -0.171875 -0.96875zm8.249115 -8.03125l0 -1.34375q0 -0.96875 -0.234375 -1.21875q-0.21875 -0.25 -1.078125 -0.25l-1.203125 0.25q-0.234375 0.046875 -0.359375 0.046875q-0.84375 0 -0.84375 -1.078125l2.40625 -0.421875q1.796875 0 2.1875 0.484375q0.1875 0.234375 0.296875 0.40625q0.109375 0.171875 0.125 0.609375q0.078125 0.6875 0.078125 1.609375l0 9.953125q-1.078125 0 -1.28125 -0.15625q-0.1875 -0.15625 -0.1875 -1.046875q-0.234375 0.140625 -0.671875 0.53125q-0.90625 0.84375 -1.53125 0.84375q-1.46875 0 -1.75 -0.921875q-0.265625 -0.9375 -0.265625 -5.125q0 -1.609375 1.390625 -2.140625q1.15625 -0.4375 2.921875 -0.4375l0.09375 0l-0.09375 -0.59375zm-0.09375 1.9375q-1.390625 0 -2.109375 0.203125q-0.703125 0.203125 -0.703125 0.828125q0 4.390625 0.203125 4.8125q0.09375 0.15625 0.421875 0.15625q0.34375 0 0.734375 -0.1875q0.40625 -0.1875 0.84375 -0.515625q0.4375 -0.328125 0.703125 -0.4375l-0.09375 -0.609375l0 -3.640625l0.09375 -0.609375l-0.09375 0zm4.2236023 6.0l0 -11.78125q1.0625 0 1.234375 0.09375q0.1875 0.078125 0.1875 0.625l0 0.265625l1.921875 -1.15625q0.40625 0 1.1875 0.171875q0 0.84375 -0.15625 0.984375q-0.15625 0.125 -1.03125 0.125l-2.046875 1.125l0.125 0.59375l0 10.0625q-1.0625 0 -1.25 -0.140625q-0.171875 -0.140625 -0.171875 -0.96875z" fill-rule="nonzero"/><path fill="#000000" fill-opacity="0.0" d="m127.291336 60.440945l0 23.68504" fill-rule="evenodd"/><path stroke="#000000" stroke-width="1.0" stroke-linejoin="round" stroke-linecap="butt" d="m127.291336 60.440945l0 17.68504" fill-rule="evenodd"/><path fill="#000000" stroke="#000000" stroke-width="1.0" stroke-linecap="butt" d="m125.6396 78.125984l1.6517334 4.538101l1.6517334 -4.538101z" fill-rule="evenodd"/></g></svg>